<?xml version="1.0" encoding="utf-8" standalone="no"?>
<!DOCTYPE svg PUBLIC "-//W3C//DTD SVG 1.1//EN"
  "http://www.w3.org/Graphics/SVG/1.1/DTD/svg11.dtd">
<svg xmlns:xlink="http://www.w3.org/1999/xlink" width="399.814545pt" height="306.687pt" viewBox="0 0 399.814545 306.687" xmlns="http://www.w3.org/2000/svg" version="1.1">
 <metadata>
  <rdf:RDF xmlns:dc="http://purl.org/dc/elements/1.1/" xmlns:cc="http://creativecommons.org/ns#" xmlns:rdf="http://www.w3.org/1999/02/22-rdf-syntax-ns#">
   <cc:Work>
    <dc:type rdf:resource="http://purl.org/dc/dcmitype/StillImage"/>
    <dc:date>2024-11-24T19:14:22.236584</dc:date>
    <dc:format>image/svg+xml</dc:format>
    <dc:creator>
     <cc:Agent>
      <dc:title>Matplotlib v3.9.2, https://matplotlib.org/</dc:title>
     </cc:Agent>
    </dc:creator>
   </cc:Work>
  </rdf:RDF>
 </metadata>
 <defs>
  <style type="text/css">*{stroke-linejoin: round; stroke-linecap: butt}</style>
 </defs>
 <g id="figure_1">
  <g id="patch_1">
   <path d="M 0 306.687 
L 399.814545 306.687 
L 399.814545 0 
L 0 0 
z
" style="fill: #ffffff"/>
  </g>
  <g id="axes_1">
   <g id="patch_2">
    <path d="M 34.2 285.987 
L 391.32 285.987 
L 391.32 19.875 
L 34.2 19.875 
z
" style="fill: #ffffff"/>
   </g>
   <g id="patch_3">
    <path d="M 50.432727 285.987 
L 58.549091 285.987 
L 58.549091 116.805284 
L 50.432727 116.805284 
z
" clip-path="url(#pabec9490ce)" style="fill: #1f77b4"/>
   </g>
   <g id="patch_4">
    <path d="M 58.549091 285.987 
L 66.665455 285.987 
L 66.665455 32.547 
L 58.549091 32.547 
z
" clip-path="url(#pabec9490ce)" style="fill: #1f77b4"/>
   </g>
   <g id="patch_5">
    <path d="M 66.665455 285.987 
L 74.781818 285.987 
L 74.781818 84.063156 
L 66.665455 84.063156 
z
" clip-path="url(#pabec9490ce)" style="fill: #1f77b4"/>
   </g>
   <g id="patch_6">
    <path d="M 74.781818 285.987 
L 82.898182 285.987 
L 82.898182 149.078999 
L 74.781818 149.078999 
z
" clip-path="url(#pabec9490ce)" style="fill: #1f77b4"/>
   </g>
   <g id="patch_7">
    <path d="M 82.898182 285.987 
L 91.014545 285.987 
L 91.014545 183.113949 
L 82.898182 183.113949 
z
" clip-path="url(#pabec9490ce)" style="fill: #1f77b4"/>
   </g>
   <g id="patch_8">
    <path d="M 91.014545 285.987 
L 99.130909 285.987 
L 99.130909 135.485629 
L 91.014545 135.485629 
z
" clip-path="url(#pabec9490ce)" style="fill: #1f77b4"/>
   </g>
   <g id="patch_9">
    <path d="M 99.130909 285.987 
L 107.247273 285.987 
L 107.247273 228.550093 
L 99.130909 228.550093 
z
" clip-path="url(#pabec9490ce)" style="fill: #1f77b4"/>
   </g>
   <g id="patch_10">
    <path d="M 107.247273 285.987 
L 115.363636 285.987 
L 115.363636 237.253223 
L 107.247273 237.253223 
z
" clip-path="url(#pabec9490ce)" style="fill: #1f77b4"/>
   </g>
   <g id="patch_11">
    <path d="M 115.363636 285.987 
L 123.48 285.987 
L 123.48 243.782912 
L 115.363636 243.782912 
z
" clip-path="url(#pabec9490ce)" style="fill: #1f77b4"/>
   </g>
   <g id="patch_12">
    <path d="M 123.48 285.987 
L 131.596364 285.987 
L 131.596364 248.944832 
L 123.48 248.944832 
z
" clip-path="url(#pabec9490ce)" style="fill: #1f77b4"/>
   </g>
   <g id="patch_13">
    <path d="M 131.596364 285.987 
L 139.712727 285.987 
L 139.712727 225.346142 
L 131.596364 225.346142 
z
" clip-path="url(#pabec9490ce)" style="fill: #1f77b4"/>
   </g>
   <g id="patch_14">
    <path d="M 139.712727 285.987 
L 147.829091 285.987 
L 147.829091 260.917491 
L 139.712727 260.917491 
z
" clip-path="url(#pabec9490ce)" style="fill: #1f77b4"/>
   </g>
   <g id="patch_15">
    <path d="M 147.829091 285.987 
L 155.945455 285.987 
L 155.945455 263.297033 
L 147.829091 263.297033 
z
" clip-path="url(#pabec9490ce)" style="fill: #1f77b4"/>
   </g>
   <g id="patch_16">
    <path d="M 155.945455 285.987 
L 164.061818 285.987 
L 164.061818 265.845204 
L 155.945455 265.845204 
z
" clip-path="url(#pabec9490ce)" style="fill: #1f77b4"/>
   </g>
   <g id="patch_17">
    <path d="M 164.061818 285.987 
L 172.178182 285.987 
L 172.178182 268.449585 
L 164.061818 268.449585 
z
" clip-path="url(#pabec9490ce)" style="fill: #1f77b4"/>
   </g>
   <g id="patch_18">
    <path d="M 172.178182 285.987 
L 180.294545 285.987 
L 180.294545 256.645556 
L 172.178182 256.645556 
z
" clip-path="url(#pabec9490ce)" style="fill: #1f77b4"/>
   </g>
   <g id="patch_19">
    <path d="M 180.294545 285.987 
L 188.410909 285.987 
L 188.410909 273.555296 
L 180.294545 273.555296 
z
" clip-path="url(#pabec9490ce)" style="fill: #1f77b4"/>
   </g>
   <g id="patch_20">
    <path d="M 188.410909 285.987 
L 196.527273 285.987 
L 196.527273 274.604543 
L 188.410909 274.604543 
z
" clip-path="url(#pabec9490ce)" style="fill: #1f77b4"/>
   </g>
   <g id="patch_21">
    <path d="M 196.527273 285.987 
L 204.643636 285.987 
L 204.643636 276.112836 
L 196.527273 276.112836 
z
" clip-path="url(#pabec9490ce)" style="fill: #1f77b4"/>
   </g>
   <g id="patch_22">
    <path d="M 204.643636 285.987 
L 212.76 285.987 
L 212.76 278.117647 
L 204.643636 278.117647 
z
" clip-path="url(#pabec9490ce)" style="fill: #1f77b4"/>
   </g>
   <g id="patch_23">
    <path d="M 212.76 285.987 
L 220.876364 285.987 
L 220.876364 272.815202 
L 212.76 272.815202 
z
" clip-path="url(#pabec9490ce)" style="fill: #1f77b4"/>
   </g>
   <g id="patch_24">
    <path d="M 220.876364 285.987 
L 228.992727 285.987 
L 228.992727 280.459717 
L 220.876364 280.459717 
z
" clip-path="url(#pabec9490ce)" style="fill: #1f77b4"/>
   </g>
   <g id="patch_25">
    <path d="M 228.992727 285.987 
L 237.109091 285.987 
L 237.109091 281.74317 
L 228.992727 281.74317 
z
" clip-path="url(#pabec9490ce)" style="fill: #1f77b4"/>
   </g>
   <g id="patch_26">
    <path d="M 237.109091 285.987 
L 245.225455 285.987 
L 245.225455 282.361477 
L 237.109091 282.361477 
z
" clip-path="url(#pabec9490ce)" style="fill: #1f77b4"/>
   </g>
   <g id="patch_27">
    <path d="M 245.225455 285.987 
L 253.341818 285.987 
L 253.341818 282.548842 
L 245.225455 282.548842 
z
" clip-path="url(#pabec9490ce)" style="fill: #1f77b4"/>
   </g>
   <g id="patch_28">
    <path d="M 253.341818 285.987 
L 261.458182 285.987 
L 261.458182 280.684555 
L 253.341818 280.684555 
z
" clip-path="url(#pabec9490ce)" style="fill: #1f77b4"/>
   </g>
   <g id="patch_29">
    <path d="M 261.458182 285.987 
L 269.574545 285.987 
L 269.574545 283.897874 
L 261.458182 283.897874 
z
" clip-path="url(#pabec9490ce)" style="fill: #1f77b4"/>
   </g>
   <g id="patch_30">
    <path d="M 269.574545 285.987 
L 277.690909 285.987 
L 277.690909 284.581758 
L 269.574545 284.581758 
z
" clip-path="url(#pabec9490ce)" style="fill: #1f77b4"/>
   </g>
   <g id="patch_31">
    <path d="M 277.690909 285.987 
L 285.807273 285.987 
L 285.807273 284.778492 
L 277.690909 284.778492 
z
" clip-path="url(#pabec9490ce)" style="fill: #1f77b4"/>
   </g>
   <g id="patch_32">
    <path d="M 285.807273 285.987 
L 293.923636 285.987 
L 293.923636 284.95649 
L 285.807273 284.95649 
z
" clip-path="url(#pabec9490ce)" style="fill: #1f77b4"/>
   </g>
   <g id="patch_33">
    <path d="M 293.923636 285.987 
L 302.04 285.987 
L 302.04 284.459971 
L 293.923636 284.459971 
z
" clip-path="url(#pabec9490ce)" style="fill: #1f77b4"/>
   </g>
   <g id="patch_34">
    <path d="M 302.04 285.987 
L 310.156364 285.987 
L 310.156364 285.453008 
L 302.04 285.453008 
z
" clip-path="url(#pabec9490ce)" style="fill: #1f77b4"/>
   </g>
   <g id="patch_35">
    <path d="M 310.156364 285.987 
L 318.272727 285.987 
L 318.272727 285.65911 
L 310.156364 285.65911 
z
" clip-path="url(#pabec9490ce)" style="fill: #1f77b4"/>
   </g>
   <g id="patch_36">
    <path d="M 318.272727 285.987 
L 326.389091 285.987 
L 326.389091 285.687215 
L 318.272727 285.687215 
z
" clip-path="url(#pabec9490ce)" style="fill: #1f77b4"/>
   </g>
   <g id="patch_37">
    <path d="M 326.389091 285.987 
L 334.505455 285.987 
L 334.505455 285.65911 
L 326.389091 285.65911 
z
" clip-path="url(#pabec9490ce)" style="fill: #1f77b4"/>
   </g>
   <g id="patch_38">
    <path d="M 334.505455 285.987 
L 342.621818 285.987 
L 342.621818 285.602901 
L 334.505455 285.602901 
z
" clip-path="url(#pabec9490ce)" style="fill: #1f77b4"/>
   </g>
   <g id="patch_39">
    <path d="M 342.621818 285.987 
L 350.738182 285.987 
L 350.738182 285.93079 
L 342.621818 285.93079 
z
" clip-path="url(#pabec9490ce)" style="fill: #1f77b4"/>
   </g>
   <g id="patch_40">
    <path d="M 350.738182 285.987 
L 358.854545 285.987 
L 358.854545 285.846476 
L 350.738182 285.846476 
z
" clip-path="url(#pabec9490ce)" style="fill: #1f77b4"/>
   </g>
   <g id="patch_41">
    <path d="M 358.854545 285.987 
L 366.970909 285.987 
L 366.970909 285.93079 
L 358.854545 285.93079 
z
" clip-path="url(#pabec9490ce)" style="fill: #1f77b4"/>
   </g>
   <g id="patch_42">
    <path d="M 366.970909 285.987 
L 375.087273 285.987 
L 375.087273 285.893317 
L 366.970909 285.893317 
z
" clip-path="url(#pabec9490ce)" style="fill: #1f77b4"/>
   </g>
   <g id="matplotlib.axis_1">
    <g id="xtick_1">
     <g id="line2d_1">
      <defs>
       <path id="m3bd688e138" d="M 0 0 
L 0 3.5 
" style="stroke: #000000; stroke-width: 0.8"/>
      </defs>
      <g>
       <use xlink:href="#m3bd688e138" x="50.432727" y="285.987" style="stroke: #000000; stroke-width: 0.8"/>
      </g>
     </g>
     <g id="text_1">
      <!-- 0 -->
      <g transform="translate(48.432727 298.487) scale(0.08 -0.08)">
       <defs>
        <path id="SimHei-30" d="M 225 2537 
Q 250 3200 412 3587 
Q 575 3975 875 4225 
Q 1175 4475 1612 4475 
Q 2050 4475 2375 4112 
Q 2700 3750 2800 3200 
Q 2900 2650 2862 1937 
Q 2825 1225 2612 775 
Q 2400 325 1975 150 
Q 1550 -25 1125 187 
Q 700 400 525 750 
Q 350 1100 275 1487 
Q 200 1875 225 2537 
z
M 750 2687 
Q 675 2000 800 1462 
Q 925 925 1212 700 
Q 1500 475 1800 612 
Q 2100 750 2237 1162 
Q 2375 1575 2375 2062 
Q 2375 2550 2337 2950 
Q 2300 3350 2112 3675 
Q 1925 4000 1612 4012 
Q 1300 4025 1062 3700 
Q 825 3375 750 2687 
z
" transform="scale(0.015625)"/>
       </defs>
       <use xlink:href="#SimHei-30"/>
      </g>
     </g>
    </g>
    <g id="xtick_2">
     <g id="line2d_2">
      <g>
       <use xlink:href="#m3bd688e138" x="118.069091" y="285.987" style="stroke: #000000; stroke-width: 0.8"/>
      </g>
     </g>
     <g id="text_2">
      <!-- 10 -->
      <g transform="translate(114.069091 298.487) scale(0.08 -0.08)">
       <defs>
        <path id="SimHei-31" d="M 1400 3600 
Q 1075 3275 575 2975 
L 575 3450 
Q 1200 3875 1600 4450 
L 1900 4450 
L 1900 150 
L 1400 150 
L 1400 3600 
z
" transform="scale(0.015625)"/>
       </defs>
       <use xlink:href="#SimHei-31"/>
       <use xlink:href="#SimHei-30" x="50"/>
      </g>
     </g>
    </g>
    <g id="xtick_3">
     <g id="line2d_3">
      <g>
       <use xlink:href="#m3bd688e138" x="185.705455" y="285.987" style="stroke: #000000; stroke-width: 0.8"/>
      </g>
     </g>
     <g id="text_3">
      <!-- 20 -->
      <g transform="translate(181.705455 298.487) scale(0.08 -0.08)">
       <defs>
        <path id="SimHei-32" d="M 300 250 
Q 325 625 650 925 
Q 975 1225 1475 1862 
Q 1975 2500 2125 2850 
Q 2275 3200 2237 3450 
Q 2200 3700 2000 3862 
Q 1800 4025 1537 4000 
Q 1275 3975 1037 3800 
Q 800 3625 675 3275 
L 200 3350 
Q 400 3925 712 4187 
Q 1025 4450 1450 4475 
Q 1700 4500 1900 4462 
Q 2100 4425 2312 4287 
Q 2525 4150 2662 3875 
Q 2800 3600 2762 3212 
Q 2725 2825 2375 2287 
Q 2025 1750 1025 600 
L 2825 600 
L 2825 150 
L 300 150 
L 300 250 
z
" transform="scale(0.015625)"/>
       </defs>
       <use xlink:href="#SimHei-32"/>
       <use xlink:href="#SimHei-30" x="50"/>
      </g>
     </g>
    </g>
    <g id="xtick_4">
     <g id="line2d_4">
      <g>
       <use xlink:href="#m3bd688e138" x="253.341818" y="285.987" style="stroke: #000000; stroke-width: 0.8"/>
      </g>
     </g>
     <g id="text_4">
      <!-- 30 -->
      <g transform="translate(249.341818 298.487) scale(0.08 -0.08)">
       <defs>
        <path id="SimHei-33" d="M 250 1225 
L 700 1300 
Q 800 975 1025 762 
Q 1250 550 1587 562 
Q 1925 575 2125 837 
Q 2325 1100 2300 1437 
Q 2275 1775 2037 1962 
Q 1800 2150 1275 2225 
L 1275 2550 
Q 1800 2600 2037 2825 
Q 2275 3050 2250 3412 
Q 2225 3775 1925 3937 
Q 1625 4100 1287 3975 
Q 950 3850 750 3275 
L 300 3350 
Q 450 3800 712 4100 
Q 975 4400 1425 4450 
Q 1875 4500 2212 4337 
Q 2550 4175 2687 3837 
Q 2825 3500 2725 3100 
Q 2625 2700 2150 2400 
Q 2500 2250 2687 1950 
Q 2875 1650 2812 1162 
Q 2750 675 2375 375 
Q 2000 75 1525 87 
Q 1050 100 700 387 
Q 350 675 250 1225 
z
" transform="scale(0.015625)"/>
       </defs>
       <use xlink:href="#SimHei-33"/>
       <use xlink:href="#SimHei-30" x="50"/>
      </g>
     </g>
    </g>
    <g id="xtick_5">
     <g id="line2d_5">
      <g>
       <use xlink:href="#m3bd688e138" x="320.978182" y="285.987" style="stroke: #000000; stroke-width: 0.8"/>
      </g>
     </g>
     <g id="text_5">
      <!-- 40 -->
      <g transform="translate(316.978182 298.487) scale(0.08 -0.08)">
       <defs>
        <path id="SimHei-34" d="M 2000 1100 
L 75 1100 
L 75 1525 
L 2100 4450 
L 2475 4450 
L 2475 1525 
L 3075 1525 
L 3075 1100 
L 2475 1100 
L 2475 150 
L 2000 150 
L 2000 1100 
z
M 2000 1525 
L 2000 3500 
L 600 1525 
L 2000 1525 
z
" transform="scale(0.015625)"/>
       </defs>
       <use xlink:href="#SimHei-34"/>
       <use xlink:href="#SimHei-30" x="50"/>
      </g>
     </g>
    </g>
    <g id="xtick_6">
     <g id="line2d_6">
      <g>
       <use xlink:href="#m3bd688e138" x="388.614545" y="285.987" style="stroke: #000000; stroke-width: 0.8"/>
      </g>
     </g>
     <g id="text_6">
      <!-- 50 -->
      <g transform="translate(384.614545 298.487) scale(0.08 -0.08)">
       <defs>
        <path id="SimHei-35" d="M 550 1325 
Q 725 650 1150 575 
Q 1575 500 1837 662 
Q 2100 825 2212 1087 
Q 2325 1350 2312 1675 
Q 2300 2000 2137 2225 
Q 1975 2450 1725 2525 
Q 1475 2600 1162 2525 
Q 850 2450 650 2175 
L 225 2225 
Q 275 2375 700 4375 
L 2675 4375 
L 2675 3925 
L 1075 3925 
Q 950 3250 825 2850 
Q 1200 3025 1525 3012 
Q 1850 3000 2150 2862 
Q 2450 2725 2587 2487 
Q 2725 2250 2787 2012 
Q 2850 1775 2837 1500 
Q 2825 1225 2725 937 
Q 2625 650 2425 462 
Q 2225 275 1937 162 
Q 1650 50 1275 75 
Q 900 100 562 350 
Q 225 600 100 1200 
L 550 1325 
z
" transform="scale(0.015625)"/>
       </defs>
       <use xlink:href="#SimHei-35"/>
       <use xlink:href="#SimHei-30" x="50"/>
      </g>
     </g>
    </g>
   </g>
   <g id="matplotlib.axis_2">
    <g id="ytick_1">
     <g id="line2d_7">
      <defs>
       <path id="m04cce470de" d="M 0 0 
L -3.5 0 
" style="stroke: #000000; stroke-width: 0.8"/>
      </defs>
      <g>
       <use xlink:href="#m04cce470de" x="34.2" y="285.987" style="stroke: #000000; stroke-width: 0.8"/>
      </g>
     </g>
     <g id="text_7">
      <!-- 0 -->
      <g transform="translate(23.2 288.737) scale(0.08 -0.08)">
       <use xlink:href="#SimHei-30"/>
      </g>
     </g>
    </g>
    <g id="ytick_2">
     <g id="line2d_8">
      <g>
       <use xlink:href="#m04cce470de" x="34.2" y="239.145615" style="stroke: #000000; stroke-width: 0.8"/>
      </g>
     </g>
     <g id="text_8">
      <!-- 5000 -->
      <g transform="translate(11.2 241.895615) scale(0.08 -0.08)">
       <use xlink:href="#SimHei-35"/>
       <use xlink:href="#SimHei-30" x="50"/>
       <use xlink:href="#SimHei-30" x="100"/>
       <use xlink:href="#SimHei-30" x="150"/>
      </g>
     </g>
    </g>
    <g id="ytick_3">
     <g id="line2d_9">
      <g>
       <use xlink:href="#m04cce470de" x="34.2" y="192.304229" style="stroke: #000000; stroke-width: 0.8"/>
      </g>
     </g>
     <g id="text_9">
      <!-- 10000 -->
      <g transform="translate(7.2 195.054229) scale(0.08 -0.08)">
       <use xlink:href="#SimHei-31"/>
       <use xlink:href="#SimHei-30" x="50"/>
       <use xlink:href="#SimHei-30" x="100"/>
       <use xlink:href="#SimHei-30" x="150"/>
       <use xlink:href="#SimHei-30" x="200"/>
      </g>
     </g>
    </g>
    <g id="ytick_4">
     <g id="line2d_10">
      <g>
       <use xlink:href="#m04cce470de" x="34.2" y="145.462844" style="stroke: #000000; stroke-width: 0.8"/>
      </g>
     </g>
     <g id="text_10">
      <!-- 15000 -->
      <g transform="translate(7.2 148.212844) scale(0.08 -0.08)">
       <use xlink:href="#SimHei-31"/>
       <use xlink:href="#SimHei-35" x="50"/>
       <use xlink:href="#SimHei-30" x="100"/>
       <use xlink:href="#SimHei-30" x="150"/>
       <use xlink:href="#SimHei-30" x="200"/>
      </g>
     </g>
    </g>
    <g id="ytick_5">
     <g id="line2d_11">
      <g>
       <use xlink:href="#m04cce470de" x="34.2" y="98.621458" style="stroke: #000000; stroke-width: 0.8"/>
      </g>
     </g>
     <g id="text_11">
      <!-- 20000 -->
      <g transform="translate(7.2 101.371458) scale(0.08 -0.08)">
       <use xlink:href="#SimHei-32"/>
       <use xlink:href="#SimHei-30" x="50"/>
       <use xlink:href="#SimHei-30" x="100"/>
       <use xlink:href="#SimHei-30" x="150"/>
       <use xlink:href="#SimHei-30" x="200"/>
      </g>
     </g>
    </g>
    <g id="ytick_6">
     <g id="line2d_12">
      <g>
       <use xlink:href="#m04cce470de" x="34.2" y="51.780073" style="stroke: #000000; stroke-width: 0.8"/>
      </g>
     </g>
     <g id="text_12">
      <!-- 25000 -->
      <g transform="translate(7.2 54.530073) scale(0.08 -0.08)">
       <use xlink:href="#SimHei-32"/>
       <use xlink:href="#SimHei-35" x="50"/>
       <use xlink:href="#SimHei-30" x="100"/>
       <use xlink:href="#SimHei-30" x="150"/>
       <use xlink:href="#SimHei-30" x="200"/>
      </g>
     </g>
    </g>
   </g>
   <g id="patch_43">
    <path d="M 34.2 285.987 
L 34.2 19.875 
" style="fill: none; stroke: #000000; stroke-width: 0.8; stroke-linejoin: miter; stroke-linecap: square"/>
   </g>
   <g id="patch_44">
    <path d="M 391.32 285.987 
L 391.32 19.875 
" style="fill: none; stroke: #000000; stroke-width: 0.8; stroke-linejoin: miter; stroke-linecap: square"/>
   </g>
   <g id="patch_45">
    <path d="M 34.2 285.987 
L 391.32 285.987 
" style="fill: none; stroke: #000000; stroke-width: 0.8; stroke-linejoin: miter; stroke-linecap: square"/>
   </g>
   <g id="patch_46">
    <path d="M 34.2 19.875 
L 391.32 19.875 
" style="fill: none; stroke: #000000; stroke-width: 0.8; stroke-linejoin: miter; stroke-linecap: square"/>
   </g>
   <g id="text_13">
    <!-- Histogram of Phrase Lengths Distribution -->
    <g transform="translate(116.76 13.875) scale(0.096 -0.096)">
     <defs>
      <path id="SimHei-48" d="M 2850 125 
L 2275 125 
L 2275 2125 
L 850 2125 
L 850 125 
L 275 125 
L 275 4400 
L 850 4400 
L 850 2600 
L 2275 2600 
L 2275 4400 
L 2850 4400 
L 2850 125 
z
" transform="scale(0.015625)"/>
      <path id="SimHei-69" d="M 1800 3725 
L 1300 3725 
L 1300 4375 
L 1800 4375 
L 1800 3725 
z
M 1800 125 
L 1300 125 
L 1300 2925 
L 1800 2925 
L 1800 125 
z
" transform="scale(0.015625)"/>
      <path id="SimHei-73" d="M 2750 900 
Q 2750 500 2437 287 
Q 2125 75 1650 75 
Q 1050 75 725 312 
Q 400 550 400 1000 
L 900 1000 
Q 900 700 1112 600 
Q 1325 500 1625 500 
Q 1925 500 2075 612 
Q 2225 725 2225 900 
Q 2225 1025 2100 1150 
Q 1975 1275 1475 1350 
Q 900 1425 687 1637 
Q 475 1850 475 2200 
Q 475 2500 762 2737 
Q 1050 2975 1600 2975 
Q 2100 2975 2387 2750 
Q 2675 2525 2675 2150 
L 2175 2150 
Q 2175 2375 2012 2462 
Q 1850 2550 1600 2550 
Q 1275 2550 1137 2437 
Q 1000 2325 1000 2175 
Q 1000 2000 1125 1900 
Q 1250 1800 1650 1750 
Q 2300 1650 2525 1437 
Q 2750 1225 2750 900 
z
" transform="scale(0.015625)"/>
      <path id="SimHei-74" d="M 2750 200 
Q 2625 150 2462 112 
Q 2300 75 2025 75 
Q 1575 75 1300 325 
Q 1025 575 1025 1025 
L 1025 2525 
L 175 2525 
L 175 2925 
L 1025 2925 
L 1025 3900 
L 1525 3900 
L 1525 2925 
L 2550 2925 
L 2550 2525 
L 1525 2525 
L 1525 1000 
Q 1525 800 1625 662 
Q 1725 525 2000 525 
Q 2275 525 2450 575 
Q 2625 625 2750 700 
L 2750 200 
z
" transform="scale(0.015625)"/>
      <path id="SimHei-6f" d="M 2925 1525 
Q 2925 875 2525 475 
Q 2125 75 1575 75 
Q 1025 75 625 475 
Q 225 875 225 1525 
Q 225 2175 625 2575 
Q 1025 2975 1575 2975 
Q 2125 2975 2525 2575 
Q 2925 2175 2925 1525 
z
M 2375 1525 
Q 2375 2025 2125 2275 
Q 1875 2525 1575 2525 
Q 1275 2525 1025 2275 
Q 775 2025 775 1525 
Q 775 1025 1025 775 
Q 1275 525 1575 525 
Q 1875 525 2125 775 
Q 2375 1025 2375 1525 
z
" transform="scale(0.015625)"/>
      <path id="SimHei-67" d="M 2975 2500 
Q 2800 2550 2637 2562 
Q 2475 2575 2300 2525 
Q 2375 2450 2425 2337 
Q 2475 2225 2475 2000 
Q 2475 1575 2187 1300 
Q 1900 1025 1475 1025 
Q 1375 1025 1212 1062 
Q 1050 1100 950 1150 
Q 875 1100 850 1050 
Q 825 1000 825 925 
Q 825 800 1000 737 
Q 1175 675 1625 675 
Q 2350 675 2612 475 
Q 2875 275 2875 -25 
Q 2875 -425 2487 -612 
Q 2100 -800 1575 -800 
Q 900 -800 575 -625 
Q 250 -450 250 -150 
Q 250 0 375 150 
Q 500 300 700 400 
Q 550 475 462 587 
Q 375 700 375 875 
Q 375 1025 487 1137 
Q 600 1250 750 1325 
Q 625 1450 550 1625 
Q 475 1800 475 2000 
Q 475 2425 762 2700 
Q 1050 2975 1475 2975 
Q 1700 2975 1862 2912 
Q 2025 2850 2150 2725 
Q 2350 2875 2550 2937 
Q 2750 3000 2975 2975 
L 2975 2500 
z
M 1975 2000 
Q 1975 2250 1850 2400 
Q 1725 2550 1475 2550 
Q 1225 2550 1100 2400 
Q 975 2250 975 2000 
Q 975 1750 1100 1600 
Q 1225 1450 1475 1450 
Q 1725 1450 1850 1600 
Q 1975 1750 1975 2000 
z
M 2400 -75 
Q 2400 25 2287 125 
Q 2175 225 1725 225 
Q 1625 225 1450 237 
Q 1275 250 1050 275 
Q 850 200 775 100 
Q 700 0 700 -100 
Q 700 -250 900 -350 
Q 1100 -450 1600 -450 
Q 2025 -450 2212 -337 
Q 2400 -225 2400 -75 
z
" transform="scale(0.015625)"/>
      <path id="SimHei-72" d="M 2500 2425 
Q 2025 2500 1700 2287 
Q 1375 2075 1150 1550 
L 1150 125 
L 650 125 
L 650 2925 
L 1150 2925 
L 1150 2200 
Q 1375 2600 1712 2787 
Q 2050 2975 2500 2975 
L 2500 2425 
z
" transform="scale(0.015625)"/>
      <path id="SimHei-61" d="M 2875 125 
L 2275 125 
Q 2225 175 2200 262 
Q 2175 350 2175 475 
Q 2000 275 1750 175 
Q 1500 75 1225 75 
Q 825 75 550 275 
Q 275 475 275 850 
Q 275 1225 525 1450 
Q 775 1675 1300 1750 
Q 1650 1800 1912 1875 
Q 2175 1950 2175 2075 
Q 2175 2225 2062 2375 
Q 1950 2525 1575 2525 
Q 1275 2525 1137 2412 
Q 1000 2300 950 2100 
L 400 2100 
Q 450 2500 762 2737 
Q 1075 2975 1575 2975 
Q 2125 2975 2400 2725 
Q 2675 2475 2675 2025 
L 2675 650 
Q 2675 500 2725 375 
Q 2775 250 2875 125 
z
M 2175 1050 
L 2175 1550 
Q 2025 1500 1887 1462 
Q 1750 1425 1425 1375 
Q 1050 1325 937 1200 
Q 825 1075 825 900 
Q 825 750 937 637 
Q 1050 525 1275 525 
Q 1500 525 1762 650 
Q 2025 775 2175 1050 
z
" transform="scale(0.015625)"/>
      <path id="SimHei-6d" d="M 3050 125 
L 2550 125 
L 2550 2150 
Q 2550 2300 2500 2400 
Q 2450 2500 2300 2500 
Q 2125 2500 1975 2312 
Q 1825 2125 1825 1825 
L 1825 125 
L 1325 125 
L 1325 2150 
Q 1325 2300 1275 2400 
Q 1225 2500 1075 2500 
Q 900 2500 750 2312 
Q 600 2125 600 1825 
L 600 125 
L 100 125 
L 100 2925 
L 600 2925 
L 600 2550 
Q 725 2750 900 2862 
Q 1075 2975 1275 2975 
Q 1475 2975 1612 2862 
Q 1750 2750 1800 2550 
Q 1925 2750 2087 2862 
Q 2250 2975 2450 2975 
Q 2750 2975 2900 2812 
Q 3050 2650 3050 2350 
L 3050 125 
z
" transform="scale(0.015625)"/>
      <path id="SimHei-20" transform="scale(0.015625)"/>
      <path id="SimHei-66" d="M 2850 3825 
Q 2725 3900 2550 3950 
Q 2375 4000 2100 4000 
Q 1825 4000 1725 3862 
Q 1625 3725 1625 3525 
L 1625 2925 
L 2650 2925 
L 2650 2525 
L 1625 2525 
L 1625 125 
L 1125 125 
L 1125 2525 
L 275 2525 
L 275 2925 
L 1125 2925 
L 1125 3500 
Q 1125 3950 1400 4200 
Q 1675 4450 2125 4450 
Q 2400 4450 2562 4412 
Q 2725 4375 2850 4325 
L 2850 3825 
z
" transform="scale(0.015625)"/>
      <path id="SimHei-50" d="M 2950 3100 
Q 2950 2500 2600 2150 
Q 2250 1800 1625 1800 
L 900 1800 
L 900 125 
L 325 125 
L 325 4400 
L 1625 4400 
Q 2250 4400 2600 4050 
Q 2950 3700 2950 3100 
z
M 2375 3100 
Q 2375 3575 2150 3750 
Q 1925 3925 1475 3925 
L 900 3925 
L 900 2275 
L 1475 2275 
Q 1925 2275 2150 2450 
Q 2375 2625 2375 3100 
z
" transform="scale(0.015625)"/>
      <path id="SimHei-68" d="M 2800 125 
L 2300 125 
L 2300 1925 
Q 2300 2225 2150 2400 
Q 2000 2575 1750 2575 
Q 1425 2575 1137 2237 
Q 850 1900 850 1400 
L 850 125 
L 350 125 
L 350 4400 
L 850 4400 
L 850 2400 
Q 1050 2675 1287 2825 
Q 1525 2975 1900 2975 
Q 2350 2975 2575 2725 
Q 2800 2475 2800 2100 
L 2800 125 
z
" transform="scale(0.015625)"/>
      <path id="SimHei-65" d="M 2850 1075 
Q 2800 625 2450 350 
Q 2100 75 1625 75 
Q 1025 75 637 462 
Q 250 850 250 1525 
Q 250 2200 637 2587 
Q 1025 2975 1625 2975 
Q 2150 2975 2487 2637 
Q 2825 2300 2825 1525 
L 800 1525 
Q 800 975 1037 750 
Q 1275 525 1625 525 
Q 1900 525 2075 662 
Q 2250 800 2300 1075 
L 2850 1075 
z
M 2250 1925 
Q 2200 2275 2025 2412 
Q 1850 2550 1575 2550 
Q 1325 2550 1125 2412 
Q 925 2275 825 1925 
L 2250 1925 
z
" transform="scale(0.015625)"/>
      <path id="SimHei-4c" d="M 2900 125 
L 300 125 
L 300 4400 
L 875 4400 
L 875 600 
L 2900 600 
L 2900 125 
z
" transform="scale(0.015625)"/>
      <path id="SimHei-6e" d="M 2800 125 
L 2300 125 
L 2300 1925 
Q 2300 2225 2150 2400 
Q 2000 2575 1750 2575 
Q 1425 2575 1137 2237 
Q 850 1900 850 1400 
L 850 125 
L 350 125 
L 350 2925 
L 850 2925 
L 850 2400 
Q 1050 2675 1287 2825 
Q 1525 2975 1900 2975 
Q 2350 2975 2575 2725 
Q 2800 2475 2800 2100 
L 2800 125 
z
" transform="scale(0.015625)"/>
      <path id="SimHei-44" d="M 2925 2250 
Q 2925 1100 2437 612 
Q 1950 125 1125 125 
L 275 125 
L 275 4400 
L 1125 4400 
Q 2050 4400 2487 3900 
Q 2925 3400 2925 2250 
z
M 2325 2250 
Q 2325 3175 2025 3550 
Q 1725 3925 1125 3925 
L 850 3925 
L 850 600 
L 1125 600 
Q 1725 600 2025 962 
Q 2325 1325 2325 2250 
z
" transform="scale(0.015625)"/>
      <path id="SimHei-62" d="M 2825 1525 
Q 2825 800 2475 437 
Q 2125 75 1625 75 
Q 1350 75 1150 175 
Q 950 275 800 500 
L 800 125 
L 300 125 
L 300 4400 
L 800 4400 
L 800 2550 
Q 950 2775 1150 2887 
Q 1350 3000 1625 3000 
Q 2125 3000 2475 2625 
Q 2825 2250 2825 1525 
z
M 2275 1525 
Q 2275 2000 2087 2275 
Q 1900 2550 1525 2550 
Q 1225 2550 1012 2275 
Q 800 2000 800 1525 
Q 800 1050 1012 787 
Q 1225 525 1525 525 
Q 1900 525 2087 787 
Q 2275 1050 2275 1525 
z
" transform="scale(0.015625)"/>
      <path id="SimHei-75" d="M 2800 125 
L 2300 125 
L 2300 650 
Q 2100 375 1862 225 
Q 1625 75 1250 75 
Q 800 75 575 325 
Q 350 575 350 950 
L 350 2925 
L 850 2925 
L 850 1125 
Q 850 825 1000 650 
Q 1150 475 1400 475 
Q 1725 475 2012 812 
Q 2300 1150 2300 1650 
L 2300 2925 
L 2800 2925 
L 2800 125 
z
" transform="scale(0.015625)"/>
     </defs>
     <use xlink:href="#SimHei-48"/>
     <use xlink:href="#SimHei-69" x="50"/>
     <use xlink:href="#SimHei-73" x="100"/>
     <use xlink:href="#SimHei-74" x="150"/>
     <use xlink:href="#SimHei-6f" x="200"/>
     <use xlink:href="#SimHei-67" x="250"/>
     <use xlink:href="#SimHei-72" x="300"/>
     <use xlink:href="#SimHei-61" x="350"/>
     <use xlink:href="#SimHei-6d" x="400"/>
     <use xlink:href="#SimHei-20" x="450"/>
     <use xlink:href="#SimHei-6f" x="500"/>
     <use xlink:href="#SimHei-66" x="550"/>
     <use xlink:href="#SimHei-20" x="600"/>
     <use xlink:href="#SimHei-50" x="650"/>
     <use xlink:href="#SimHei-68" x="700"/>
     <use xlink:href="#SimHei-72" x="750"/>
     <use xlink:href="#SimHei-61" x="800"/>
     <use xlink:href="#SimHei-73" x="850"/>
     <use xlink:href="#SimHei-65" x="900"/>
     <use xlink:href="#SimHei-20" x="950"/>
     <use xlink:href="#SimHei-4c" x="1000"/>
     <use xlink:href="#SimHei-65" x="1050"/>
     <use xlink:href="#SimHei-6e" x="1100"/>
     <use xlink:href="#SimHei-67" x="1150"/>
     <use xlink:href="#SimHei-74" x="1200"/>
     <use xlink:href="#SimHei-68" x="1250"/>
     <use xlink:href="#SimHei-73" x="1300"/>
     <use xlink:href="#SimHei-20" x="1350"/>
     <use xlink:href="#SimHei-44" x="1400"/>
     <use xlink:href="#SimHei-69" x="1450"/>
     <use xlink:href="#SimHei-73" x="1500"/>
     <use xlink:href="#SimHei-74" x="1550"/>
     <use xlink:href="#SimHei-72" x="1600"/>
     <use xlink:href="#SimHei-69" x="1650"/>
     <use xlink:href="#SimHei-62" x="1700"/>
     <use xlink:href="#SimHei-75" x="1750"/>
     <use xlink:href="#SimHei-74" x="1800"/>
     <use xlink:href="#SimHei-69" x="1850"/>
     <use xlink:href="#SimHei-6f" x="1900"/>
     <use xlink:href="#SimHei-6e" x="1950"/>
    </g>
   </g>
  </g>
 </g>
 <defs>
  <clipPath id="pabec9490ce">
   <rect x="34.2" y="19.875" width="357.12" height="266.112"/>
  </clipPath>
 </defs>
</svg>
