<?xml version="1.0" encoding="utf-8" standalone="no"?>
<!DOCTYPE svg PUBLIC "-//W3C//DTD SVG 1.1//EN"
  "http://www.w3.org/Graphics/SVG/1.1/DTD/svg11.dtd">
<svg xmlns:xlink="http://www.w3.org/1999/xlink" width="878.4pt" height="341.1pt" viewBox="0 0 878.4 341.1" xmlns="http://www.w3.org/2000/svg" version="1.1">
 <metadata>
  <rdf:RDF xmlns:dc="http://purl.org/dc/elements/1.1/" xmlns:cc="http://creativecommons.org/ns#" xmlns:rdf="http://www.w3.org/1999/02/22-rdf-syntax-ns#">
   <cc:Work>
    <dc:type rdf:resource="http://purl.org/dc/dcmitype/StillImage"/>
    <dc:date>2024-11-24T19:14:28.758757</dc:date>
    <dc:format>image/svg+xml</dc:format>
    <dc:creator>
     <cc:Agent>
      <dc:title>Matplotlib v3.9.2, https://matplotlib.org/</dc:title>
     </cc:Agent>
    </dc:creator>
   </cc:Work>
  </rdf:RDF>
 </metadata>
 <defs>
  <style type="text/css">*{stroke-linejoin: round; stroke-linecap: butt}</style>
 </defs>
 <g id="figure_1">
  <g id="patch_1">
   <path d="M 0 341.1 
L 878.4 341.1 
L 878.4 0 
L 0 0 
z
" style="fill: #ffffff"/>
  </g>
  <g id="axes_1">
   <g id="patch_2">
    <path d="M 34.2 320.4 
L 178.510345 320.4 
L 178.510345 54 
L 34.2 54 
z
" style="fill: #ffffff"/>
   </g>
   <g id="patch_3">
    <path d="M 40.759561 320.4 
L 44.039342 320.4 
L 44.039342 132.290084 
L 40.759561 132.290084 
z
" clip-path="url(#p37d3beef6d)" style="fill: #1f77b4; opacity: 0.5"/>
   </g>
   <g id="patch_4">
    <path d="M 44.039342 320.4 
L 47.319122 320.4 
L 47.319122 66.685714 
L 44.039342 66.685714 
z
" clip-path="url(#p37d3beef6d)" style="fill: #1f77b4; opacity: 0.5"/>
   </g>
   <g id="patch_5">
    <path d="M 47.319122 320.4 
L 50.598903 320.4 
L 50.598903 139.460729 
L 47.319122 139.460729 
z
" clip-path="url(#p37d3beef6d)" style="fill: #1f77b4; opacity: 0.5"/>
   </g>
   <g id="patch_6">
    <path d="M 50.598903 320.4 
L 53.878683 320.4 
L 53.878683 210.00019 
L 50.598903 210.00019 
z
" clip-path="url(#p37d3beef6d)" style="fill: #1f77b4; opacity: 0.5"/>
   </g>
   <g id="patch_7">
    <path d="M 53.878683 320.4 
L 57.158464 320.4 
L 57.158464 242.591474 
L 53.878683 242.591474 
z
" clip-path="url(#p37d3beef6d)" style="fill: #1f77b4; opacity: 0.5"/>
   </g>
   <g id="patch_8">
    <path d="M 57.158464 320.4 
L 60.438245 320.4 
L 60.438245 219.60323 
L 57.158464 219.60323 
z
" clip-path="url(#p37d3beef6d)" style="fill: #1f77b4; opacity: 0.5"/>
   </g>
   <g id="patch_9">
    <path d="M 60.438245 320.4 
L 63.718025 320.4 
L 63.718025 285.109179 
L 60.438245 285.109179 
z
" clip-path="url(#p37d3beef6d)" style="fill: #1f77b4; opacity: 0.5"/>
   </g>
   <g id="patch_10">
    <path d="M 63.718025 320.4 
L 66.997806 320.4 
L 66.997806 294.023275 
L 63.718025 294.023275 
z
" clip-path="url(#p37d3beef6d)" style="fill: #1f77b4; opacity: 0.5"/>
   </g>
   <g id="patch_11">
    <path d="M 66.997806 320.4 
L 70.277586 320.4 
L 70.277586 297.566417 
L 66.997806 297.566417 
z
" clip-path="url(#p37d3beef6d)" style="fill: #1f77b4; opacity: 0.5"/>
   </g>
   <g id="patch_12">
    <path d="M 70.277586 320.4 
L 73.557367 320.4 
L 73.557367 301.854744 
L 70.277586 301.854744 
z
" clip-path="url(#p37d3beef6d)" style="fill: #1f77b4; opacity: 0.5"/>
   </g>
   <g id="patch_13">
    <path d="M 73.557367 320.4 
L 76.837147 320.4 
L 76.837147 291.67524 
L 73.557367 291.67524 
z
" clip-path="url(#p37d3beef6d)" style="fill: #1f77b4; opacity: 0.5"/>
   </g>
   <g id="patch_14">
    <path d="M 76.837147 320.4 
L 80.116928 320.4 
L 80.116928 309.26441 
L 76.837147 309.26441 
z
" clip-path="url(#p37d3beef6d)" style="fill: #1f77b4; opacity: 0.5"/>
   </g>
   <g id="patch_15">
    <path d="M 80.116928 320.4 
L 83.396708 320.4 
L 83.396708 310.684479 
L 80.116928 310.684479 
z
" clip-path="url(#p37d3beef6d)" style="fill: #1f77b4; opacity: 0.5"/>
   </g>
   <g id="patch_16">
    <path d="M 83.396708 320.4 
L 86.676489 320.4 
L 86.676489 312.554471 
L 83.396708 312.554471 
z
" clip-path="url(#p37d3beef6d)" style="fill: #1f77b4; opacity: 0.5"/>
   </g>
   <g id="patch_17">
    <path d="M 86.676489 320.4 
L 89.95627 320.4 
L 89.95627 313.243415 
L 86.676489 313.243415 
z
" clip-path="url(#p37d3beef6d)" style="fill: #1f77b4; opacity: 0.5"/>
   </g>
   <g id="patch_18">
    <path d="M 89.95627 320.4 
L 93.23605 320.4 
L 93.23605 308.519226 
L 89.95627 308.519226 
z
" clip-path="url(#p37d3beef6d)" style="fill: #1f77b4; opacity: 0.5"/>
   </g>
   <g id="patch_19">
    <path d="M 93.23605 320.4 
L 96.515831 320.4 
L 96.515831 316.196034 
L 93.23605 316.196034 
z
" clip-path="url(#p37d3beef6d)" style="fill: #1f77b4; opacity: 0.5"/>
   </g>
   <g id="patch_20">
    <path d="M 96.515831 320.4 
L 99.795611 320.4 
L 99.795611 316.645957 
L 96.515831 316.645957 
z
" clip-path="url(#p37d3beef6d)" style="fill: #1f77b4; opacity: 0.5"/>
   </g>
   <g id="patch_21">
    <path d="M 99.795611 320.4 
L 103.075392 320.4 
L 103.075392 316.744377 
L 99.795611 316.744377 
z
" clip-path="url(#p37d3beef6d)" style="fill: #1f77b4; opacity: 0.5"/>
   </g>
   <g id="patch_22">
    <path d="M 103.075392 320.4 
L 106.355172 320.4 
L 106.355172 317.798884 
L 103.075392 317.798884 
z
" clip-path="url(#p37d3beef6d)" style="fill: #1f77b4; opacity: 0.5"/>
   </g>
   <g id="patch_23">
    <path d="M 106.355172 320.4 
L 109.634953 320.4 
L 109.634953 315.942952 
L 106.355172 315.942952 
z
" clip-path="url(#p37d3beef6d)" style="fill: #1f77b4; opacity: 0.5"/>
   </g>
   <g id="patch_24">
    <path d="M 109.634953 320.4 
L 112.914734 320.4 
L 112.914734 318.656549 
L 109.634953 318.656549 
z
" clip-path="url(#p37d3beef6d)" style="fill: #1f77b4; opacity: 0.5"/>
   </g>
   <g id="patch_25">
    <path d="M 112.914734 320.4 
L 116.194514 320.4 
L 116.194514 319.233013 
L 112.914734 319.233013 
z
" clip-path="url(#p37d3beef6d)" style="fill: #1f77b4; opacity: 0.5"/>
   </g>
   <g id="patch_26">
    <path d="M 116.194514 320.4 
L 119.474295 320.4 
L 119.474295 319.429854 
L 116.194514 319.429854 
z
" clip-path="url(#p37d3beef6d)" style="fill: #1f77b4; opacity: 0.5"/>
   </g>
   <g id="patch_27">
    <path d="M 119.474295 320.4 
L 122.754075 320.4 
L 122.754075 319.359553 
L 119.474295 319.359553 
z
" clip-path="url(#p37d3beef6d)" style="fill: #1f77b4; opacity: 0.5"/>
   </g>
   <g id="patch_28">
    <path d="M 122.754075 320.4 
L 126.033856 320.4 
L 126.033856 318.74091 
L 122.754075 318.74091 
z
" clip-path="url(#p37d3beef6d)" style="fill: #1f77b4; opacity: 0.5"/>
   </g>
   <g id="patch_29">
    <path d="M 126.033856 320.4 
L 129.313636 320.4 
L 129.313636 319.823536 
L 126.033856 319.823536 
z
" clip-path="url(#p37d3beef6d)" style="fill: #1f77b4; opacity: 0.5"/>
   </g>
   <g id="patch_30">
    <path d="M 129.313636 320.4 
L 132.593417 320.4 
L 132.593417 319.992257 
L 129.313636 319.992257 
z
" clip-path="url(#p37d3beef6d)" style="fill: #1f77b4; opacity: 0.5"/>
   </g>
   <g id="patch_31">
    <path d="M 132.593417 320.4 
L 135.873197 320.4 
L 135.873197 320.132858 
L 132.593417 320.132858 
z
" clip-path="url(#p37d3beef6d)" style="fill: #1f77b4; opacity: 0.5"/>
   </g>
   <g id="patch_32">
    <path d="M 135.873197 320.4 
L 139.152978 320.4 
L 139.152978 320.175039 
L 135.873197 320.175039 
z
" clip-path="url(#p37d3beef6d)" style="fill: #1f77b4; opacity: 0.5"/>
   </g>
   <g id="patch_33">
    <path d="M 139.152978 320.4 
L 142.432759 320.4 
L 142.432759 320.020378 
L 139.152978 320.020378 
z
" clip-path="url(#p37d3beef6d)" style="fill: #1f77b4; opacity: 0.5"/>
   </g>
   <g id="patch_34">
    <path d="M 142.432759 320.4 
L 145.712539 320.4 
L 145.712539 320.245339 
L 142.432759 320.245339 
z
" clip-path="url(#p37d3beef6d)" style="fill: #1f77b4; opacity: 0.5"/>
   </g>
   <g id="patch_35">
    <path d="M 145.712539 320.4 
L 148.99232 320.4 
L 148.99232 320.287519 
L 145.712539 320.287519 
z
" clip-path="url(#p37d3beef6d)" style="fill: #1f77b4; opacity: 0.5"/>
   </g>
   <g id="patch_36">
    <path d="M 148.99232 320.4 
L 152.2721 320.4 
L 152.2721 320.34376 
L 148.99232 320.34376 
z
" clip-path="url(#p37d3beef6d)" style="fill: #1f77b4; opacity: 0.5"/>
   </g>
   <g id="patch_37">
    <path d="M 152.2721 320.4 
L 155.551881 320.4 
L 155.551881 320.301579 
L 152.2721 320.301579 
z
" clip-path="url(#p37d3beef6d)" style="fill: #1f77b4; opacity: 0.5"/>
   </g>
   <g id="patch_38">
    <path d="M 155.551881 320.4 
L 158.831661 320.4 
L 158.831661 320.3297 
L 155.551881 320.3297 
z
" clip-path="url(#p37d3beef6d)" style="fill: #1f77b4; opacity: 0.5"/>
   </g>
   <g id="patch_39">
    <path d="M 158.831661 320.4 
L 162.111442 320.4 
L 162.111442 320.4 
L 158.831661 320.4 
z
" clip-path="url(#p37d3beef6d)" style="fill: #1f77b4; opacity: 0.5"/>
   </g>
   <g id="patch_40">
    <path d="M 162.111442 320.4 
L 165.391223 320.4 
L 165.391223 320.37188 
L 162.111442 320.37188 
z
" clip-path="url(#p37d3beef6d)" style="fill: #1f77b4; opacity: 0.5"/>
   </g>
   <g id="patch_41">
    <path d="M 165.391223 320.4 
L 168.671003 320.4 
L 168.671003 320.4 
L 165.391223 320.4 
z
" clip-path="url(#p37d3beef6d)" style="fill: #1f77b4; opacity: 0.5"/>
   </g>
   <g id="patch_42">
    <path d="M 168.671003 320.4 
L 171.950784 320.4 
L 171.950784 320.37188 
L 168.671003 320.37188 
z
" clip-path="url(#p37d3beef6d)" style="fill: #1f77b4; opacity: 0.5"/>
   </g>
   <g id="matplotlib.axis_1">
    <g id="xtick_1">
     <g id="line2d_1">
      <defs>
       <path id="m4895e83250" d="M 0 0 
L 0 3.5 
" style="stroke: #000000; stroke-width: 0.8"/>
      </defs>
      <g>
       <use xlink:href="#m4895e83250" x="40.759561" y="320.4" style="stroke: #000000; stroke-width: 0.8"/>
      </g>
     </g>
     <g id="text_1">
      <!-- 0 -->
      <g transform="translate(38.759561 332.9) scale(0.08 -0.08)">
       <defs>
        <path id="SimHei-30" d="M 225 2537 
Q 250 3200 412 3587 
Q 575 3975 875 4225 
Q 1175 4475 1612 4475 
Q 2050 4475 2375 4112 
Q 2700 3750 2800 3200 
Q 2900 2650 2862 1937 
Q 2825 1225 2612 775 
Q 2400 325 1975 150 
Q 1550 -25 1125 187 
Q 700 400 525 750 
Q 350 1100 275 1487 
Q 200 1875 225 2537 
z
M 750 2687 
Q 675 2000 800 1462 
Q 925 925 1212 700 
Q 1500 475 1800 612 
Q 2100 750 2237 1162 
Q 2375 1575 2375 2062 
Q 2375 2550 2337 2950 
Q 2300 3350 2112 3675 
Q 1925 4000 1612 4012 
Q 1300 4025 1062 3700 
Q 825 3375 750 2687 
z
" transform="scale(0.015625)"/>
       </defs>
       <use xlink:href="#SimHei-30"/>
      </g>
     </g>
    </g>
    <g id="xtick_2">
     <g id="line2d_2">
      <g>
       <use xlink:href="#m4895e83250" x="68.091066" y="320.4" style="stroke: #000000; stroke-width: 0.8"/>
      </g>
     </g>
     <g id="text_2">
      <!-- 10 -->
      <g transform="translate(64.091066 332.9) scale(0.08 -0.08)">
       <defs>
        <path id="SimHei-31" d="M 1400 3600 
Q 1075 3275 575 2975 
L 575 3450 
Q 1200 3875 1600 4450 
L 1900 4450 
L 1900 150 
L 1400 150 
L 1400 3600 
z
" transform="scale(0.015625)"/>
       </defs>
       <use xlink:href="#SimHei-31"/>
       <use xlink:href="#SimHei-30" x="50"/>
      </g>
     </g>
    </g>
    <g id="xtick_3">
     <g id="line2d_3">
      <g>
       <use xlink:href="#m4895e83250" x="95.422571" y="320.4" style="stroke: #000000; stroke-width: 0.8"/>
      </g>
     </g>
     <g id="text_3">
      <!-- 20 -->
      <g transform="translate(91.422571 332.9) scale(0.08 -0.08)">
       <defs>
        <path id="SimHei-32" d="M 300 250 
Q 325 625 650 925 
Q 975 1225 1475 1862 
Q 1975 2500 2125 2850 
Q 2275 3200 2237 3450 
Q 2200 3700 2000 3862 
Q 1800 4025 1537 4000 
Q 1275 3975 1037 3800 
Q 800 3625 675 3275 
L 200 3350 
Q 400 3925 712 4187 
Q 1025 4450 1450 4475 
Q 1700 4500 1900 4462 
Q 2100 4425 2312 4287 
Q 2525 4150 2662 3875 
Q 2800 3600 2762 3212 
Q 2725 2825 2375 2287 
Q 2025 1750 1025 600 
L 2825 600 
L 2825 150 
L 300 150 
L 300 250 
z
" transform="scale(0.015625)"/>
       </defs>
       <use xlink:href="#SimHei-32"/>
       <use xlink:href="#SimHei-30" x="50"/>
      </g>
     </g>
    </g>
    <g id="xtick_4">
     <g id="line2d_4">
      <g>
       <use xlink:href="#m4895e83250" x="122.754075" y="320.4" style="stroke: #000000; stroke-width: 0.8"/>
      </g>
     </g>
     <g id="text_4">
      <!-- 30 -->
      <g transform="translate(118.754075 332.9) scale(0.08 -0.08)">
       <defs>
        <path id="SimHei-33" d="M 250 1225 
L 700 1300 
Q 800 975 1025 762 
Q 1250 550 1587 562 
Q 1925 575 2125 837 
Q 2325 1100 2300 1437 
Q 2275 1775 2037 1962 
Q 1800 2150 1275 2225 
L 1275 2550 
Q 1800 2600 2037 2825 
Q 2275 3050 2250 3412 
Q 2225 3775 1925 3937 
Q 1625 4100 1287 3975 
Q 950 3850 750 3275 
L 300 3350 
Q 450 3800 712 4100 
Q 975 4400 1425 4450 
Q 1875 4500 2212 4337 
Q 2550 4175 2687 3837 
Q 2825 3500 2725 3100 
Q 2625 2700 2150 2400 
Q 2500 2250 2687 1950 
Q 2875 1650 2812 1162 
Q 2750 675 2375 375 
Q 2000 75 1525 87 
Q 1050 100 700 387 
Q 350 675 250 1225 
z
" transform="scale(0.015625)"/>
       </defs>
       <use xlink:href="#SimHei-33"/>
       <use xlink:href="#SimHei-30" x="50"/>
      </g>
     </g>
    </g>
    <g id="xtick_5">
     <g id="line2d_5">
      <g>
       <use xlink:href="#m4895e83250" x="150.08558" y="320.4" style="stroke: #000000; stroke-width: 0.8"/>
      </g>
     </g>
     <g id="text_5">
      <!-- 40 -->
      <g transform="translate(146.08558 332.9) scale(0.08 -0.08)">
       <defs>
        <path id="SimHei-34" d="M 2000 1100 
L 75 1100 
L 75 1525 
L 2100 4450 
L 2475 4450 
L 2475 1525 
L 3075 1525 
L 3075 1100 
L 2475 1100 
L 2475 150 
L 2000 150 
L 2000 1100 
z
M 2000 1525 
L 2000 3500 
L 600 1525 
L 2000 1525 
z
" transform="scale(0.015625)"/>
       </defs>
       <use xlink:href="#SimHei-34"/>
       <use xlink:href="#SimHei-30" x="50"/>
      </g>
     </g>
    </g>
    <g id="xtick_6">
     <g id="line2d_6">
      <g>
       <use xlink:href="#m4895e83250" x="177.417085" y="320.4" style="stroke: #000000; stroke-width: 0.8"/>
      </g>
     </g>
     <g id="text_6">
      <!-- 50 -->
      <g transform="translate(173.417085 332.9) scale(0.08 -0.08)">
       <defs>
        <path id="SimHei-35" d="M 550 1325 
Q 725 650 1150 575 
Q 1575 500 1837 662 
Q 2100 825 2212 1087 
Q 2325 1350 2312 1675 
Q 2300 2000 2137 2225 
Q 1975 2450 1725 2525 
Q 1475 2600 1162 2525 
Q 850 2450 650 2175 
L 225 2225 
Q 275 2375 700 4375 
L 2675 4375 
L 2675 3925 
L 1075 3925 
Q 950 3250 825 2850 
Q 1200 3025 1525 3012 
Q 1850 3000 2150 2862 
Q 2450 2725 2587 2487 
Q 2725 2250 2787 2012 
Q 2850 1775 2837 1500 
Q 2825 1225 2725 937 
Q 2625 650 2425 462 
Q 2225 275 1937 162 
Q 1650 50 1275 75 
Q 900 100 562 350 
Q 225 600 100 1200 
L 550 1325 
z
" transform="scale(0.015625)"/>
       </defs>
       <use xlink:href="#SimHei-35"/>
       <use xlink:href="#SimHei-30" x="50"/>
      </g>
     </g>
    </g>
   </g>
   <g id="matplotlib.axis_2">
    <g id="ytick_1">
     <g id="line2d_7">
      <defs>
       <path id="m06c625be69" d="M 0 0 
L -3.5 0 
" style="stroke: #000000; stroke-width: 0.8"/>
      </defs>
      <g>
       <use xlink:href="#m06c625be69" x="34.2" y="320.4" style="stroke: #000000; stroke-width: 0.8"/>
      </g>
     </g>
     <g id="text_7">
      <!-- 0.000 -->
      <g transform="translate(7.2 323.15) scale(0.08 -0.08)">
       <defs>
        <path id="SimHei-2e" d="M 1075 125 
L 500 125 
L 500 675 
L 1075 675 
L 1075 125 
z
" transform="scale(0.015625)"/>
       </defs>
       <use xlink:href="#SimHei-30"/>
       <use xlink:href="#SimHei-2e" x="50"/>
       <use xlink:href="#SimHei-30" x="100"/>
       <use xlink:href="#SimHei-30" x="150"/>
       <use xlink:href="#SimHei-30" x="200"/>
      </g>
     </g>
    </g>
    <g id="ytick_2">
     <g id="line2d_8">
      <g>
       <use xlink:href="#m06c625be69" x="34.2" y="286.832103" style="stroke: #000000; stroke-width: 0.8"/>
      </g>
     </g>
     <g id="text_8">
      <!-- 0.025 -->
      <g transform="translate(7.2 289.582103) scale(0.08 -0.08)">
       <use xlink:href="#SimHei-30"/>
       <use xlink:href="#SimHei-2e" x="50"/>
       <use xlink:href="#SimHei-30" x="100"/>
       <use xlink:href="#SimHei-32" x="150"/>
       <use xlink:href="#SimHei-35" x="200"/>
      </g>
     </g>
    </g>
    <g id="ytick_3">
     <g id="line2d_9">
      <g>
       <use xlink:href="#m06c625be69" x="34.2" y="253.264205" style="stroke: #000000; stroke-width: 0.8"/>
      </g>
     </g>
     <g id="text_9">
      <!-- 0.050 -->
      <g transform="translate(7.2 256.014205) scale(0.08 -0.08)">
       <use xlink:href="#SimHei-30"/>
       <use xlink:href="#SimHei-2e" x="50"/>
       <use xlink:href="#SimHei-30" x="100"/>
       <use xlink:href="#SimHei-35" x="150"/>
       <use xlink:href="#SimHei-30" x="200"/>
      </g>
     </g>
    </g>
    <g id="ytick_4">
     <g id="line2d_10">
      <g>
       <use xlink:href="#m06c625be69" x="34.2" y="219.696308" style="stroke: #000000; stroke-width: 0.8"/>
      </g>
     </g>
     <g id="text_10">
      <!-- 0.075 -->
      <g transform="translate(7.2 222.446308) scale(0.08 -0.08)">
       <defs>
        <path id="SimHei-37" d="M 850 150 
Q 1300 2050 2425 3925 
L 275 3925 
L 275 4375 
L 2950 4375 
L 2950 3950 
Q 1775 2050 1400 150 
L 850 150 
z
" transform="scale(0.015625)"/>
       </defs>
       <use xlink:href="#SimHei-30"/>
       <use xlink:href="#SimHei-2e" x="50"/>
       <use xlink:href="#SimHei-30" x="100"/>
       <use xlink:href="#SimHei-37" x="150"/>
       <use xlink:href="#SimHei-35" x="200"/>
      </g>
     </g>
    </g>
    <g id="ytick_5">
     <g id="line2d_11">
      <g>
       <use xlink:href="#m06c625be69" x="34.2" y="186.12841" style="stroke: #000000; stroke-width: 0.8"/>
      </g>
     </g>
     <g id="text_11">
      <!-- 0.100 -->
      <g transform="translate(7.2 188.87841) scale(0.08 -0.08)">
       <use xlink:href="#SimHei-30"/>
       <use xlink:href="#SimHei-2e" x="50"/>
       <use xlink:href="#SimHei-31" x="100"/>
       <use xlink:href="#SimHei-30" x="150"/>
       <use xlink:href="#SimHei-30" x="200"/>
      </g>
     </g>
    </g>
    <g id="ytick_6">
     <g id="line2d_12">
      <g>
       <use xlink:href="#m06c625be69" x="34.2" y="152.560513" style="stroke: #000000; stroke-width: 0.8"/>
      </g>
     </g>
     <g id="text_12">
      <!-- 0.125 -->
      <g transform="translate(7.2 155.310513) scale(0.08 -0.08)">
       <use xlink:href="#SimHei-30"/>
       <use xlink:href="#SimHei-2e" x="50"/>
       <use xlink:href="#SimHei-31" x="100"/>
       <use xlink:href="#SimHei-32" x="150"/>
       <use xlink:href="#SimHei-35" x="200"/>
      </g>
     </g>
    </g>
    <g id="ytick_7">
     <g id="line2d_13">
      <g>
       <use xlink:href="#m06c625be69" x="34.2" y="118.992616" style="stroke: #000000; stroke-width: 0.8"/>
      </g>
     </g>
     <g id="text_13">
      <!-- 0.150 -->
      <g transform="translate(7.2 121.742616) scale(0.08 -0.08)">
       <use xlink:href="#SimHei-30"/>
       <use xlink:href="#SimHei-2e" x="50"/>
       <use xlink:href="#SimHei-31" x="100"/>
       <use xlink:href="#SimHei-35" x="150"/>
       <use xlink:href="#SimHei-30" x="200"/>
      </g>
     </g>
    </g>
    <g id="ytick_8">
     <g id="line2d_14">
      <g>
       <use xlink:href="#m06c625be69" x="34.2" y="85.424718" style="stroke: #000000; stroke-width: 0.8"/>
      </g>
     </g>
     <g id="text_14">
      <!-- 0.175 -->
      <g transform="translate(7.2 88.174718) scale(0.08 -0.08)">
       <use xlink:href="#SimHei-30"/>
       <use xlink:href="#SimHei-2e" x="50"/>
       <use xlink:href="#SimHei-31" x="100"/>
       <use xlink:href="#SimHei-37" x="150"/>
       <use xlink:href="#SimHei-35" x="200"/>
      </g>
     </g>
    </g>
   </g>
   <g id="patch_43">
    <path d="M 34.2 320.4 
L 34.2 54 
" style="fill: none; stroke: #000000; stroke-width: 0.8; stroke-linejoin: miter; stroke-linecap: square"/>
   </g>
   <g id="patch_44">
    <path d="M 178.510345 320.4 
L 178.510345 54 
" style="fill: none; stroke: #000000; stroke-width: 0.8; stroke-linejoin: miter; stroke-linecap: square"/>
   </g>
   <g id="patch_45">
    <path d="M 34.2 320.4 
L 178.510345 320.4 
" style="fill: none; stroke: #000000; stroke-width: 0.8; stroke-linejoin: miter; stroke-linecap: square"/>
   </g>
   <g id="patch_46">
    <path d="M 34.2 54 
L 178.510345 54 
" style="fill: none; stroke: #000000; stroke-width: 0.8; stroke-linejoin: miter; stroke-linecap: square"/>
   </g>
   <g id="text_15">
    <!-- Neutral -->
    <g transform="translate(89.555172 48) scale(0.096 -0.096)">
     <defs>
      <path id="SimHei-4e" d="M 2850 125 
L 2225 125 
L 850 3225 
L 825 3225 
L 825 125 
L 250 125 
L 250 4400 
L 875 4400 
L 2250 1300 
L 2275 1300 
L 2275 4400 
L 2850 4400 
L 2850 125 
z
" transform="scale(0.015625)"/>
      <path id="SimHei-65" d="M 2850 1075 
Q 2800 625 2450 350 
Q 2100 75 1625 75 
Q 1025 75 637 462 
Q 250 850 250 1525 
Q 250 2200 637 2587 
Q 1025 2975 1625 2975 
Q 2150 2975 2487 2637 
Q 2825 2300 2825 1525 
L 800 1525 
Q 800 975 1037 750 
Q 1275 525 1625 525 
Q 1900 525 2075 662 
Q 2250 800 2300 1075 
L 2850 1075 
z
M 2250 1925 
Q 2200 2275 2025 2412 
Q 1850 2550 1575 2550 
Q 1325 2550 1125 2412 
Q 925 2275 825 1925 
L 2250 1925 
z
" transform="scale(0.015625)"/>
      <path id="SimHei-75" d="M 2800 125 
L 2300 125 
L 2300 650 
Q 2100 375 1862 225 
Q 1625 75 1250 75 
Q 800 75 575 325 
Q 350 575 350 950 
L 350 2925 
L 850 2925 
L 850 1125 
Q 850 825 1000 650 
Q 1150 475 1400 475 
Q 1725 475 2012 812 
Q 2300 1150 2300 1650 
L 2300 2925 
L 2800 2925 
L 2800 125 
z
" transform="scale(0.015625)"/>
      <path id="SimHei-74" d="M 2750 200 
Q 2625 150 2462 112 
Q 2300 75 2025 75 
Q 1575 75 1300 325 
Q 1025 575 1025 1025 
L 1025 2525 
L 175 2525 
L 175 2925 
L 1025 2925 
L 1025 3900 
L 1525 3900 
L 1525 2925 
L 2550 2925 
L 2550 2525 
L 1525 2525 
L 1525 1000 
Q 1525 800 1625 662 
Q 1725 525 2000 525 
Q 2275 525 2450 575 
Q 2625 625 2750 700 
L 2750 200 
z
" transform="scale(0.015625)"/>
      <path id="SimHei-72" d="M 2500 2425 
Q 2025 2500 1700 2287 
Q 1375 2075 1150 1550 
L 1150 125 
L 650 125 
L 650 2925 
L 1150 2925 
L 1150 2200 
Q 1375 2600 1712 2787 
Q 2050 2975 2500 2975 
L 2500 2425 
z
" transform="scale(0.015625)"/>
      <path id="SimHei-61" d="M 2875 125 
L 2275 125 
Q 2225 175 2200 262 
Q 2175 350 2175 475 
Q 2000 275 1750 175 
Q 1500 75 1225 75 
Q 825 75 550 275 
Q 275 475 275 850 
Q 275 1225 525 1450 
Q 775 1675 1300 1750 
Q 1650 1800 1912 1875 
Q 2175 1950 2175 2075 
Q 2175 2225 2062 2375 
Q 1950 2525 1575 2525 
Q 1275 2525 1137 2412 
Q 1000 2300 950 2100 
L 400 2100 
Q 450 2500 762 2737 
Q 1075 2975 1575 2975 
Q 2125 2975 2400 2725 
Q 2675 2475 2675 2025 
L 2675 650 
Q 2675 500 2725 375 
Q 2775 250 2875 125 
z
M 2175 1050 
L 2175 1550 
Q 2025 1500 1887 1462 
Q 1750 1425 1425 1375 
Q 1050 1325 937 1200 
Q 825 1075 825 900 
Q 825 750 937 637 
Q 1050 525 1275 525 
Q 1500 525 1762 650 
Q 2025 775 2175 1050 
z
" transform="scale(0.015625)"/>
      <path id="SimHei-6c" d="M 1825 125 
L 1325 125 
L 1325 4400 
L 1825 4400 
L 1825 125 
z
" transform="scale(0.015625)"/>
     </defs>
     <use xlink:href="#SimHei-4e"/>
     <use xlink:href="#SimHei-65" x="50"/>
     <use xlink:href="#SimHei-75" x="100"/>
     <use xlink:href="#SimHei-74" x="150"/>
     <use xlink:href="#SimHei-72" x="200"/>
     <use xlink:href="#SimHei-61" x="250"/>
     <use xlink:href="#SimHei-6c" x="300"/>
    </g>
   </g>
  </g>
  <g id="axes_2">
   <g id="patch_47">
    <path d="M 207.372414 320.4 
L 351.682759 320.4 
L 351.682759 54 
L 207.372414 54 
z
" style="fill: #ffffff"/>
   </g>
   <g id="patch_48">
    <path d="M 213.931975 320.4 
L 217.211755 320.4 
L 217.211755 205.51228 
L 213.931975 205.51228 
z
" clip-path="url(#pccded7139f)" style="fill: #1f77b4; opacity: 0.5"/>
   </g>
   <g id="patch_49">
    <path d="M 217.211755 320.4 
L 220.491536 320.4 
L 220.491536 229.911781 
L 217.211755 229.911781 
z
" clip-path="url(#pccded7139f)" style="fill: #1f77b4; opacity: 0.5"/>
   </g>
   <g id="patch_50">
    <path d="M 220.491536 320.4 
L 223.771317 320.4 
L 223.771317 238.314259 
L 220.491536 238.314259 
z
" clip-path="url(#pccded7139f)" style="fill: #1f77b4; opacity: 0.5"/>
   </g>
   <g id="patch_51">
    <path d="M 223.771317 320.4 
L 227.051097 320.4 
L 227.051097 248.978942 
L 223.771317 248.978942 
z
" clip-path="url(#pccded7139f)" style="fill: #1f77b4; opacity: 0.5"/>
   </g>
   <g id="patch_52">
    <path d="M 227.051097 320.4 
L 230.330878 320.4 
L 230.330878 255.2808 
L 227.051097 255.2808 
z
" clip-path="url(#pccded7139f)" style="fill: #1f77b4; opacity: 0.5"/>
   </g>
   <g id="patch_53">
    <path d="M 230.330878 320.4 
L 233.610658 320.4 
L 233.610658 208.582416 
L 230.330878 208.582416 
z
" clip-path="url(#pccded7139f)" style="fill: #1f77b4; opacity: 0.5"/>
   </g>
   <g id="patch_54">
    <path d="M 233.610658 320.4 
L 236.890439 320.4 
L 236.890439 260.936313 
L 233.610658 260.936313 
z
" clip-path="url(#pccded7139f)" style="fill: #1f77b4; opacity: 0.5"/>
   </g>
   <g id="patch_55">
    <path d="M 236.890439 320.4 
L 240.170219 320.4 
L 240.170219 273.055271 
L 236.890439 273.055271 
z
" clip-path="url(#pccded7139f)" style="fill: #1f77b4; opacity: 0.5"/>
   </g>
   <g id="patch_56">
    <path d="M 240.170219 320.4 
L 243.45 320.4 
L 243.45 275.155891 
L 240.170219 275.155891 
z
" clip-path="url(#pccded7139f)" style="fill: #1f77b4; opacity: 0.5"/>
   </g>
   <g id="patch_57">
    <path d="M 243.45 320.4 
L 246.729781 320.4 
L 246.729781 282.265679 
L 243.45 282.265679 
z
" clip-path="url(#pccded7139f)" style="fill: #1f77b4; opacity: 0.5"/>
   </g>
   <g id="patch_58">
    <path d="M 246.729781 320.4 
L 250.009561 320.4 
L 250.009561 278.549199 
L 246.729781 278.549199 
z
" clip-path="url(#pccded7139f)" style="fill: #1f77b4; opacity: 0.5"/>
   </g>
   <g id="patch_59">
    <path d="M 250.009561 320.4 
L 253.289342 320.4 
L 253.289342 250.433217 
L 250.009561 250.433217 
z
" clip-path="url(#pccded7139f)" style="fill: #1f77b4; opacity: 0.5"/>
   </g>
   <g id="patch_60">
    <path d="M 253.289342 320.4 
L 256.569122 320.4 
L 256.569122 285.98216 
L 253.289342 285.98216 
z
" clip-path="url(#pccded7139f)" style="fill: #1f77b4; opacity: 0.5"/>
   </g>
   <g id="patch_61">
    <path d="M 256.569122 320.4 
L 259.848903 320.4 
L 259.848903 292.930362 
L 256.569122 292.930362 
z
" clip-path="url(#pccded7139f)" style="fill: #1f77b4; opacity: 0.5"/>
   </g>
   <g id="patch_62">
    <path d="M 259.848903 320.4 
L 263.128683 320.4 
L 263.128683 295.838912 
L 259.848903 295.838912 
z
" clip-path="url(#pccded7139f)" style="fill: #1f77b4; opacity: 0.5"/>
   </g>
   <g id="patch_63">
    <path d="M 263.128683 320.4 
L 266.408464 320.4 
L 266.408464 295.030982 
L 263.128683 295.030982 
z
" clip-path="url(#pccded7139f)" style="fill: #1f77b4; opacity: 0.5"/>
   </g>
   <g id="patch_64">
    <path d="M 266.408464 320.4 
L 269.688245 320.4 
L 269.688245 290.991329 
L 266.408464 290.991329 
z
" clip-path="url(#pccded7139f)" style="fill: #1f77b4; opacity: 0.5"/>
   </g>
   <g id="patch_65">
    <path d="M 269.688245 320.4 
L 272.968025 320.4 
L 272.968025 274.994305 
L 269.688245 274.994305 
z
" clip-path="url(#pccded7139f)" style="fill: #1f77b4; opacity: 0.5"/>
   </g>
   <g id="patch_66">
    <path d="M 272.968025 320.4 
L 276.247806 320.4 
L 276.247806 303.595045 
L 272.968025 303.595045 
z
" clip-path="url(#pccded7139f)" style="fill: #1f77b4; opacity: 0.5"/>
   </g>
   <g id="patch_67">
    <path d="M 276.247806 320.4 
L 279.527586 320.4 
L 279.527586 304.24139 
L 276.247806 304.24139 
z
" clip-path="url(#pccded7139f)" style="fill: #1f77b4; opacity: 0.5"/>
   </g>
   <g id="patch_68">
    <path d="M 279.527586 320.4 
L 282.807367 320.4 
L 282.807367 306.665181 
L 279.527586 306.665181 
z
" clip-path="url(#pccded7139f)" style="fill: #1f77b4; opacity: 0.5"/>
   </g>
   <g id="patch_69">
    <path d="M 282.807367 320.4 
L 286.087147 320.4 
L 286.087147 306.018837 
L 282.807367 306.018837 
z
" clip-path="url(#pccded7139f)" style="fill: #1f77b4; opacity: 0.5"/>
   </g>
   <g id="patch_70">
    <path d="M 286.087147 320.4 
L 289.366928 320.4 
L 289.366928 299.716979 
L 286.087147 299.716979 
z
" clip-path="url(#pccded7139f)" style="fill: #1f77b4; opacity: 0.5"/>
   </g>
   <g id="patch_71">
    <path d="M 289.366928 320.4 
L 292.646708 320.4 
L 292.646708 313.77497 
L 289.366928 313.77497 
z
" clip-path="url(#pccded7139f)" style="fill: #1f77b4; opacity: 0.5"/>
   </g>
   <g id="patch_72">
    <path d="M 292.646708 320.4 
L 295.926489 320.4 
L 295.926489 314.5829 
L 292.646708 314.5829 
z
" clip-path="url(#pccded7139f)" style="fill: #1f77b4; opacity: 0.5"/>
   </g>
   <g id="patch_73">
    <path d="M 295.926489 320.4 
L 299.20627 320.4 
L 299.20627 313.936556 
L 295.926489 313.936556 
z
" clip-path="url(#pccded7139f)" style="fill: #1f77b4; opacity: 0.5"/>
   </g>
   <g id="patch_74">
    <path d="M 299.20627 320.4 
L 302.48605 320.4 
L 302.48605 316.198761 
L 299.20627 316.198761 
z
" clip-path="url(#pccded7139f)" style="fill: #1f77b4; opacity: 0.5"/>
   </g>
   <g id="patch_75">
    <path d="M 302.48605 320.4 
L 305.765831 320.4 
L 305.765831 317.653036 
L 302.48605 317.653036 
z
" clip-path="url(#pccded7139f)" style="fill: #1f77b4; opacity: 0.5"/>
   </g>
   <g id="patch_76">
    <path d="M 305.765831 320.4 
L 309.045611 320.4 
L 309.045611 316.360347 
L 305.765831 316.360347 
z
" clip-path="url(#pccded7139f)" style="fill: #1f77b4; opacity: 0.5"/>
   </g>
   <g id="patch_77">
    <path d="M 309.045611 320.4 
L 312.325392 320.4 
L 312.325392 318.784139 
L 309.045611 318.784139 
z
" clip-path="url(#pccded7139f)" style="fill: #1f77b4; opacity: 0.5"/>
   </g>
   <g id="patch_78">
    <path d="M 312.325392 320.4 
L 315.605172 320.4 
L 315.605172 319.915242 
L 312.325392 319.915242 
z
" clip-path="url(#pccded7139f)" style="fill: #1f77b4; opacity: 0.5"/>
   </g>
   <g id="patch_79">
    <path d="M 315.605172 320.4 
L 318.884953 320.4 
L 318.884953 319.915242 
L 315.605172 319.915242 
z
" clip-path="url(#pccded7139f)" style="fill: #1f77b4; opacity: 0.5"/>
   </g>
   <g id="patch_80">
    <path d="M 318.884953 320.4 
L 322.164734 320.4 
L 322.164734 319.592069 
L 318.884953 319.592069 
z
" clip-path="url(#pccded7139f)" style="fill: #1f77b4; opacity: 0.5"/>
   </g>
   <g id="patch_81">
    <path d="M 322.164734 320.4 
L 325.444514 320.4 
L 325.444514 319.753656 
L 322.164734 319.753656 
z
" clip-path="url(#pccded7139f)" style="fill: #1f77b4; opacity: 0.5"/>
   </g>
   <g id="patch_82">
    <path d="M 325.444514 320.4 
L 328.724295 320.4 
L 328.724295 319.430483 
L 325.444514 319.430483 
z
" clip-path="url(#pccded7139f)" style="fill: #1f77b4; opacity: 0.5"/>
   </g>
   <g id="patch_83">
    <path d="M 328.724295 320.4 
L 332.004075 320.4 
L 332.004075 320.076828 
L 328.724295 320.076828 
z
" clip-path="url(#pccded7139f)" style="fill: #1f77b4; opacity: 0.5"/>
   </g>
   <g id="patch_84">
    <path d="M 332.004075 320.4 
L 335.283856 320.4 
L 335.283856 320.4 
L 332.004075 320.4 
z
" clip-path="url(#pccded7139f)" style="fill: #1f77b4; opacity: 0.5"/>
   </g>
   <g id="patch_85">
    <path d="M 335.283856 320.4 
L 338.563636 320.4 
L 338.563636 320.076828 
L 335.283856 320.076828 
z
" clip-path="url(#pccded7139f)" style="fill: #1f77b4; opacity: 0.5"/>
   </g>
   <g id="patch_86">
    <path d="M 338.563636 320.4 
L 341.843417 320.4 
L 341.843417 320.238414 
L 338.563636 320.238414 
z
" clip-path="url(#pccded7139f)" style="fill: #1f77b4; opacity: 0.5"/>
   </g>
   <g id="patch_87">
    <path d="M 341.843417 320.4 
L 345.123197 320.4 
L 345.123197 319.592069 
L 341.843417 319.592069 
z
" clip-path="url(#pccded7139f)" style="fill: #1f77b4; opacity: 0.5"/>
   </g>
   <g id="matplotlib.axis_3">
    <g id="xtick_7">
     <g id="line2d_15">
      <g>
       <use xlink:href="#m4895e83250" x="211.140672" y="320.4" style="stroke: #000000; stroke-width: 0.8"/>
      </g>
     </g>
     <g id="text_16">
      <!-- 0 -->
      <g transform="translate(209.140672 332.9) scale(0.08 -0.08)">
       <use xlink:href="#SimHei-30"/>
      </g>
     </g>
    </g>
    <g id="xtick_8">
     <g id="line2d_16">
      <g>
       <use xlink:href="#m4895e83250" x="239.053698" y="320.4" style="stroke: #000000; stroke-width: 0.8"/>
      </g>
     </g>
     <g id="text_17">
      <!-- 10 -->
      <g transform="translate(235.053698 332.9) scale(0.08 -0.08)">
       <use xlink:href="#SimHei-31"/>
       <use xlink:href="#SimHei-30" x="50"/>
      </g>
     </g>
    </g>
    <g id="xtick_9">
     <g id="line2d_17">
      <g>
       <use xlink:href="#m4895e83250" x="266.966724" y="320.4" style="stroke: #000000; stroke-width: 0.8"/>
      </g>
     </g>
     <g id="text_18">
      <!-- 20 -->
      <g transform="translate(262.966724 332.9) scale(0.08 -0.08)">
       <use xlink:href="#SimHei-32"/>
       <use xlink:href="#SimHei-30" x="50"/>
      </g>
     </g>
    </g>
    <g id="xtick_10">
     <g id="line2d_18">
      <g>
       <use xlink:href="#m4895e83250" x="294.879751" y="320.4" style="stroke: #000000; stroke-width: 0.8"/>
      </g>
     </g>
     <g id="text_19">
      <!-- 30 -->
      <g transform="translate(290.879751 332.9) scale(0.08 -0.08)">
       <use xlink:href="#SimHei-33"/>
       <use xlink:href="#SimHei-30" x="50"/>
      </g>
     </g>
    </g>
    <g id="xtick_11">
     <g id="line2d_19">
      <g>
       <use xlink:href="#m4895e83250" x="322.792777" y="320.4" style="stroke: #000000; stroke-width: 0.8"/>
      </g>
     </g>
     <g id="text_20">
      <!-- 40 -->
      <g transform="translate(318.792777 332.9) scale(0.08 -0.08)">
       <use xlink:href="#SimHei-34"/>
       <use xlink:href="#SimHei-30" x="50"/>
      </g>
     </g>
    </g>
    <g id="xtick_12">
     <g id="line2d_20">
      <g>
       <use xlink:href="#m4895e83250" x="350.705803" y="320.4" style="stroke: #000000; stroke-width: 0.8"/>
      </g>
     </g>
     <g id="text_21">
      <!-- 50 -->
      <g transform="translate(346.705803 332.9) scale(0.08 -0.08)">
       <use xlink:href="#SimHei-35"/>
       <use xlink:href="#SimHei-30" x="50"/>
      </g>
     </g>
    </g>
   </g>
   <g id="matplotlib.axis_4">
    <g id="ytick_9">
     <g id="line2d_21">
      <g>
       <use xlink:href="#m06c625be69" x="207.372414" y="320.4" style="stroke: #000000; stroke-width: 0.8"/>
      </g>
     </g>
    </g>
    <g id="ytick_10">
     <g id="line2d_22">
      <g>
       <use xlink:href="#m06c625be69" x="207.372414" y="286.832103" style="stroke: #000000; stroke-width: 0.8"/>
      </g>
     </g>
    </g>
    <g id="ytick_11">
     <g id="line2d_23">
      <g>
       <use xlink:href="#m06c625be69" x="207.372414" y="253.264205" style="stroke: #000000; stroke-width: 0.8"/>
      </g>
     </g>
    </g>
    <g id="ytick_12">
     <g id="line2d_24">
      <g>
       <use xlink:href="#m06c625be69" x="207.372414" y="219.696308" style="stroke: #000000; stroke-width: 0.8"/>
      </g>
     </g>
    </g>
    <g id="ytick_13">
     <g id="line2d_25">
      <g>
       <use xlink:href="#m06c625be69" x="207.372414" y="186.12841" style="stroke: #000000; stroke-width: 0.8"/>
      </g>
     </g>
    </g>
    <g id="ytick_14">
     <g id="line2d_26">
      <g>
       <use xlink:href="#m06c625be69" x="207.372414" y="152.560513" style="stroke: #000000; stroke-width: 0.8"/>
      </g>
     </g>
    </g>
    <g id="ytick_15">
     <g id="line2d_27">
      <g>
       <use xlink:href="#m06c625be69" x="207.372414" y="118.992616" style="stroke: #000000; stroke-width: 0.8"/>
      </g>
     </g>
    </g>
    <g id="ytick_16">
     <g id="line2d_28">
      <g>
       <use xlink:href="#m06c625be69" x="207.372414" y="85.424718" style="stroke: #000000; stroke-width: 0.8"/>
      </g>
     </g>
    </g>
   </g>
   <g id="patch_88">
    <path d="M 207.372414 320.4 
L 207.372414 54 
" style="fill: none; stroke: #000000; stroke-width: 0.8; stroke-linejoin: miter; stroke-linecap: square"/>
   </g>
   <g id="patch_89">
    <path d="M 351.682759 320.4 
L 351.682759 54 
" style="fill: none; stroke: #000000; stroke-width: 0.8; stroke-linejoin: miter; stroke-linecap: square"/>
   </g>
   <g id="patch_90">
    <path d="M 207.372414 320.4 
L 351.682759 320.4 
" style="fill: none; stroke: #000000; stroke-width: 0.8; stroke-linejoin: miter; stroke-linecap: square"/>
   </g>
   <g id="patch_91">
    <path d="M 207.372414 54 
L 351.682759 54 
" style="fill: none; stroke: #000000; stroke-width: 0.8; stroke-linejoin: miter; stroke-linecap: square"/>
   </g>
   <g id="text_22">
    <!-- Negative -->
    <g transform="translate(260.327586 48) scale(0.096 -0.096)">
     <defs>
      <path id="SimHei-67" d="M 2975 2500 
Q 2800 2550 2637 2562 
Q 2475 2575 2300 2525 
Q 2375 2450 2425 2337 
Q 2475 2225 2475 2000 
Q 2475 1575 2187 1300 
Q 1900 1025 1475 1025 
Q 1375 1025 1212 1062 
Q 1050 1100 950 1150 
Q 875 1100 850 1050 
Q 825 1000 825 925 
Q 825 800 1000 737 
Q 1175 675 1625 675 
Q 2350 675 2612 475 
Q 2875 275 2875 -25 
Q 2875 -425 2487 -612 
Q 2100 -800 1575 -800 
Q 900 -800 575 -625 
Q 250 -450 250 -150 
Q 250 0 375 150 
Q 500 300 700 400 
Q 550 475 462 587 
Q 375 700 375 875 
Q 375 1025 487 1137 
Q 600 1250 750 1325 
Q 625 1450 550 1625 
Q 475 1800 475 2000 
Q 475 2425 762 2700 
Q 1050 2975 1475 2975 
Q 1700 2975 1862 2912 
Q 2025 2850 2150 2725 
Q 2350 2875 2550 2937 
Q 2750 3000 2975 2975 
L 2975 2500 
z
M 1975 2000 
Q 1975 2250 1850 2400 
Q 1725 2550 1475 2550 
Q 1225 2550 1100 2400 
Q 975 2250 975 2000 
Q 975 1750 1100 1600 
Q 1225 1450 1475 1450 
Q 1725 1450 1850 1600 
Q 1975 1750 1975 2000 
z
M 2400 -75 
Q 2400 25 2287 125 
Q 2175 225 1725 225 
Q 1625 225 1450 237 
Q 1275 250 1050 275 
Q 850 200 775 100 
Q 700 0 700 -100 
Q 700 -250 900 -350 
Q 1100 -450 1600 -450 
Q 2025 -450 2212 -337 
Q 2400 -225 2400 -75 
z
" transform="scale(0.015625)"/>
      <path id="SimHei-69" d="M 1800 3725 
L 1300 3725 
L 1300 4375 
L 1800 4375 
L 1800 3725 
z
M 1800 125 
L 1300 125 
L 1300 2925 
L 1800 2925 
L 1800 125 
z
" transform="scale(0.015625)"/>
      <path id="SimHei-76" d="M 2875 2925 
L 1825 75 
L 1275 75 
L 225 2925 
L 750 2925 
L 1525 750 
L 1575 750 
L 2350 2925 
L 2875 2925 
z
" transform="scale(0.015625)"/>
     </defs>
     <use xlink:href="#SimHei-4e"/>
     <use xlink:href="#SimHei-65" x="50"/>
     <use xlink:href="#SimHei-67" x="100"/>
     <use xlink:href="#SimHei-61" x="150"/>
     <use xlink:href="#SimHei-74" x="200"/>
     <use xlink:href="#SimHei-69" x="250"/>
     <use xlink:href="#SimHei-76" x="300"/>
     <use xlink:href="#SimHei-65" x="350"/>
    </g>
   </g>
  </g>
  <g id="axes_3">
   <g id="patch_92">
    <path d="M 380.544828 320.4 
L 524.855172 320.4 
L 524.855172 54 
L 380.544828 54 
z
" style="fill: #ffffff"/>
   </g>
   <g id="patch_93">
    <path d="M 387.104389 320.4 
L 390.384169 320.4 
L 390.384169 181.77694 
L 387.104389 181.77694 
z
" clip-path="url(#pf112cf8bba)" style="fill: #1f77b4; opacity: 0.5"/>
   </g>
   <g id="patch_94">
    <path d="M 390.384169 320.4 
L 393.66395 320.4 
L 393.66395 192.81098 
L 390.384169 192.81098 
z
" clip-path="url(#pf112cf8bba)" style="fill: #1f77b4; opacity: 0.5"/>
   </g>
   <g id="patch_95">
    <path d="M 393.66395 320.4 
L 396.94373 320.4 
L 396.94373 220.332668 
L 393.66395 220.332668 
z
" clip-path="url(#pf112cf8bba)" style="fill: #1f77b4; opacity: 0.5"/>
   </g>
   <g id="patch_96">
    <path d="M 396.94373 320.4 
L 400.223511 320.4 
L 400.223511 232.381332 
L 396.94373 232.381332 
z
" clip-path="url(#pf112cf8bba)" style="fill: #1f77b4; opacity: 0.5"/>
   </g>
   <g id="patch_97">
    <path d="M 400.223511 320.4 
L 403.503292 320.4 
L 403.503292 247.093386 
L 400.223511 247.093386 
z
" clip-path="url(#pf112cf8bba)" style="fill: #1f77b4; opacity: 0.5"/>
   </g>
   <g id="patch_98">
    <path d="M 403.503292 320.4 
L 406.783072 320.4 
L 406.783072 253.561617 
L 403.503292 253.561617 
z
" clip-path="url(#pf112cf8bba)" style="fill: #1f77b4; opacity: 0.5"/>
   </g>
   <g id="patch_99">
    <path d="M 406.783072 320.4 
L 410.062853 320.4 
L 410.062853 215.513202 
L 406.783072 215.513202 
z
" clip-path="url(#pf112cf8bba)" style="fill: #1f77b4; opacity: 0.5"/>
   </g>
   <g id="patch_100">
    <path d="M 410.062853 320.4 
L 413.342633 320.4 
L 413.342633 279.180883 
L 410.062853 279.180883 
z
" clip-path="url(#pf112cf8bba)" style="fill: #1f77b4; opacity: 0.5"/>
   </g>
   <g id="patch_101">
    <path d="M 413.342633 320.4 
L 416.622414 320.4 
L 416.622414 273.727277 
L 413.342633 273.727277 
z
" clip-path="url(#pf112cf8bba)" style="fill: #1f77b4; opacity: 0.5"/>
   </g>
   <g id="patch_102">
    <path d="M 416.622414 320.4 
L 419.902194 320.4 
L 419.902194 281.463788 
L 416.622414 281.463788 
z
" clip-path="url(#pf112cf8bba)" style="fill: #1f77b4; opacity: 0.5"/>
   </g>
   <g id="patch_103">
    <path d="M 419.902194 320.4 
L 423.181975 320.4 
L 423.181975 285.775942 
L 419.902194 285.775942 
z
" clip-path="url(#pf112cf8bba)" style="fill: #1f77b4; opacity: 0.5"/>
   </g>
   <g id="patch_104">
    <path d="M 423.181975 320.4 
L 426.461755 320.4 
L 426.461755 288.058847 
L 423.181975 288.058847 
z
" clip-path="url(#pf112cf8bba)" style="fill: #1f77b4; opacity: 0.5"/>
   </g>
   <g id="patch_105">
    <path d="M 426.461755 320.4 
L 429.741536 320.4 
L 429.741536 286.53691 
L 426.461755 286.53691 
z
" clip-path="url(#pf112cf8bba)" style="fill: #1f77b4; opacity: 0.5"/>
   </g>
   <g id="patch_106">
    <path d="M 429.741536 320.4 
L 433.021317 320.4 
L 433.021317 267.00539 
L 429.741536 267.00539 
z
" clip-path="url(#pf112cf8bba)" style="fill: #1f77b4; opacity: 0.5"/>
   </g>
   <g id="patch_107">
    <path d="M 433.021317 320.4 
L 436.301097 320.4 
L 436.301097 295.66853 
L 433.021317 295.66853 
z
" clip-path="url(#pf112cf8bba)" style="fill: #1f77b4; opacity: 0.5"/>
   </g>
   <g id="patch_108">
    <path d="M 436.301097 320.4 
L 439.580878 320.4 
L 439.580878 300.487996 
L 436.301097 300.487996 
z
" clip-path="url(#pf112cf8bba)" style="fill: #1f77b4; opacity: 0.5"/>
   </g>
   <g id="patch_109">
    <path d="M 439.580878 320.4 
L 442.860658 320.4 
L 442.860658 301.50262 
L 439.580878 301.50262 
z
" clip-path="url(#pf112cf8bba)" style="fill: #1f77b4; opacity: 0.5"/>
   </g>
   <g id="patch_110">
    <path d="M 442.860658 320.4 
L 446.140439 320.4 
L 446.140439 304.166009 
L 442.860658 304.166009 
z
" clip-path="url(#pf112cf8bba)" style="fill: #1f77b4; opacity: 0.5"/>
   </g>
   <g id="patch_111">
    <path d="M 446.140439 320.4 
L 449.420219 320.4 
L 449.420219 304.419666 
L 446.140439 304.419666 
z
" clip-path="url(#pf112cf8bba)" style="fill: #1f77b4; opacity: 0.5"/>
   </g>
   <g id="patch_112">
    <path d="M 449.420219 320.4 
L 452.7 320.4 
L 452.7 308.224507 
L 449.420219 308.224507 
z
" clip-path="url(#pf112cf8bba)" style="fill: #1f77b4; opacity: 0.5"/>
   </g>
   <g id="patch_113">
    <path d="M 452.7 320.4 
L 455.979781 320.4 
L 455.979781 299.980684 
L 452.7 299.980684 
z
" clip-path="url(#pf112cf8bba)" style="fill: #1f77b4; opacity: 0.5"/>
   </g>
   <g id="patch_114">
    <path d="M 455.979781 320.4 
L 459.259561 320.4 
L 459.259561 311.395208 
L 455.979781 311.395208 
z
" clip-path="url(#pf112cf8bba)" style="fill: #1f77b4; opacity: 0.5"/>
   </g>
   <g id="patch_115">
    <path d="M 459.259561 320.4 
L 462.539342 320.4 
L 462.539342 313.551285 
L 459.259561 313.551285 
z
" clip-path="url(#pf112cf8bba)" style="fill: #1f77b4; opacity: 0.5"/>
   </g>
   <g id="patch_116">
    <path d="M 462.539342 320.4 
L 465.819122 320.4 
L 465.819122 315.961018 
L 462.539342 315.961018 
z
" clip-path="url(#pf112cf8bba)" style="fill: #1f77b4; opacity: 0.5"/>
   </g>
   <g id="patch_117">
    <path d="M 465.819122 320.4 
L 469.098903 320.4 
L 469.098903 312.663489 
L 465.819122 312.663489 
z
" clip-path="url(#pf112cf8bba)" style="fill: #1f77b4; opacity: 0.5"/>
   </g>
   <g id="patch_118">
    <path d="M 469.098903 320.4 
L 472.378683 320.4 
L 472.378683 313.931769 
L 469.098903 313.931769 
z
" clip-path="url(#pf112cf8bba)" style="fill: #1f77b4; opacity: 0.5"/>
   </g>
   <g id="patch_119">
    <path d="M 472.378683 320.4 
L 475.658464 320.4 
L 475.658464 311.014724 
L 472.378683 311.014724 
z
" clip-path="url(#pf112cf8bba)" style="fill: #1f77b4; opacity: 0.5"/>
   </g>
   <g id="patch_120">
    <path d="M 475.658464 320.4 
L 478.938245 320.4 
L 478.938245 318.243923 
L 475.658464 318.243923 
z
" clip-path="url(#pf112cf8bba)" style="fill: #1f77b4; opacity: 0.5"/>
   </g>
   <g id="patch_121">
    <path d="M 478.938245 320.4 
L 482.218025 320.4 
L 482.218025 317.990267 
L 478.938245 317.990267 
z
" clip-path="url(#pf112cf8bba)" style="fill: #1f77b4; opacity: 0.5"/>
   </g>
   <g id="patch_122">
    <path d="M 482.218025 320.4 
L 485.497806 320.4 
L 485.497806 317.990267 
L 482.218025 317.990267 
z
" clip-path="url(#pf112cf8bba)" style="fill: #1f77b4; opacity: 0.5"/>
   </g>
   <g id="patch_123">
    <path d="M 485.497806 320.4 
L 488.777586 320.4 
L 488.777586 318.751235 
L 485.497806 318.751235 
z
" clip-path="url(#pf112cf8bba)" style="fill: #1f77b4; opacity: 0.5"/>
   </g>
   <g id="patch_124">
    <path d="M 488.777586 320.4 
L 492.057367 320.4 
L 492.057367 319.512204 
L 488.777586 319.512204 
z
" clip-path="url(#pf112cf8bba)" style="fill: #1f77b4; opacity: 0.5"/>
   </g>
   <g id="patch_125">
    <path d="M 492.057367 320.4 
L 495.337147 320.4 
L 495.337147 319.258548 
L 492.057367 319.258548 
z
" clip-path="url(#pf112cf8bba)" style="fill: #1f77b4; opacity: 0.5"/>
   </g>
   <g id="patch_126">
    <path d="M 495.337147 320.4 
L 498.616928 320.4 
L 498.616928 318.624407 
L 495.337147 318.624407 
z
" clip-path="url(#pf112cf8bba)" style="fill: #1f77b4; opacity: 0.5"/>
   </g>
   <g id="patch_127">
    <path d="M 498.616928 320.4 
L 501.896708 320.4 
L 501.896708 319.76586 
L 498.616928 319.76586 
z
" clip-path="url(#pf112cf8bba)" style="fill: #1f77b4; opacity: 0.5"/>
   </g>
   <g id="patch_128">
    <path d="M 501.896708 320.4 
L 505.176489 320.4 
L 505.176489 319.892688 
L 501.896708 319.892688 
z
" clip-path="url(#pf112cf8bba)" style="fill: #1f77b4; opacity: 0.5"/>
   </g>
   <g id="patch_129">
    <path d="M 505.176489 320.4 
L 508.45627 320.4 
L 508.45627 319.512204 
L 505.176489 319.512204 
z
" clip-path="url(#pf112cf8bba)" style="fill: #1f77b4; opacity: 0.5"/>
   </g>
   <g id="patch_130">
    <path d="M 508.45627 320.4 
L 511.73605 320.4 
L 511.73605 320.4 
L 508.45627 320.4 
z
" clip-path="url(#pf112cf8bba)" style="fill: #1f77b4; opacity: 0.5"/>
   </g>
   <g id="patch_131">
    <path d="M 511.73605 320.4 
L 515.015831 320.4 
L 515.015831 320.146344 
L 511.73605 320.146344 
z
" clip-path="url(#pf112cf8bba)" style="fill: #1f77b4; opacity: 0.5"/>
   </g>
   <g id="patch_132">
    <path d="M 515.015831 320.4 
L 518.295611 320.4 
L 518.295611 320.146344 
L 515.015831 320.146344 
z
" clip-path="url(#pf112cf8bba)" style="fill: #1f77b4; opacity: 0.5"/>
   </g>
   <g id="matplotlib.axis_5">
    <g id="xtick_13">
     <g id="line2d_29">
      <g>
       <use xlink:href="#m4895e83250" x="384.252406" y="320.4" style="stroke: #000000; stroke-width: 0.8"/>
      </g>
     </g>
     <g id="text_23">
      <!-- 0 -->
      <g transform="translate(382.252406 332.9) scale(0.08 -0.08)">
       <use xlink:href="#SimHei-30"/>
      </g>
     </g>
    </g>
    <g id="xtick_14">
     <g id="line2d_30">
      <g>
       <use xlink:href="#m4895e83250" x="412.772237" y="320.4" style="stroke: #000000; stroke-width: 0.8"/>
      </g>
     </g>
     <g id="text_24">
      <!-- 10 -->
      <g transform="translate(408.772237 332.9) scale(0.08 -0.08)">
       <use xlink:href="#SimHei-31"/>
       <use xlink:href="#SimHei-30" x="50"/>
      </g>
     </g>
    </g>
    <g id="xtick_15">
     <g id="line2d_31">
      <g>
       <use xlink:href="#m4895e83250" x="441.292068" y="320.4" style="stroke: #000000; stroke-width: 0.8"/>
      </g>
     </g>
     <g id="text_25">
      <!-- 20 -->
      <g transform="translate(437.292068 332.9) scale(0.08 -0.08)">
       <use xlink:href="#SimHei-32"/>
       <use xlink:href="#SimHei-30" x="50"/>
      </g>
     </g>
    </g>
    <g id="xtick_16">
     <g id="line2d_32">
      <g>
       <use xlink:href="#m4895e83250" x="469.811899" y="320.4" style="stroke: #000000; stroke-width: 0.8"/>
      </g>
     </g>
     <g id="text_26">
      <!-- 30 -->
      <g transform="translate(465.811899 332.9) scale(0.08 -0.08)">
       <use xlink:href="#SimHei-33"/>
       <use xlink:href="#SimHei-30" x="50"/>
      </g>
     </g>
    </g>
    <g id="xtick_17">
     <g id="line2d_33">
      <g>
       <use xlink:href="#m4895e83250" x="498.33173" y="320.4" style="stroke: #000000; stroke-width: 0.8"/>
      </g>
     </g>
     <g id="text_27">
      <!-- 40 -->
      <g transform="translate(494.33173 332.9) scale(0.08 -0.08)">
       <use xlink:href="#SimHei-34"/>
       <use xlink:href="#SimHei-30" x="50"/>
      </g>
     </g>
    </g>
   </g>
   <g id="matplotlib.axis_6">
    <g id="ytick_17">
     <g id="line2d_34">
      <g>
       <use xlink:href="#m06c625be69" x="380.544828" y="320.4" style="stroke: #000000; stroke-width: 0.8"/>
      </g>
     </g>
    </g>
    <g id="ytick_18">
     <g id="line2d_35">
      <g>
       <use xlink:href="#m06c625be69" x="380.544828" y="286.832103" style="stroke: #000000; stroke-width: 0.8"/>
      </g>
     </g>
    </g>
    <g id="ytick_19">
     <g id="line2d_36">
      <g>
       <use xlink:href="#m06c625be69" x="380.544828" y="253.264205" style="stroke: #000000; stroke-width: 0.8"/>
      </g>
     </g>
    </g>
    <g id="ytick_20">
     <g id="line2d_37">
      <g>
       <use xlink:href="#m06c625be69" x="380.544828" y="219.696308" style="stroke: #000000; stroke-width: 0.8"/>
      </g>
     </g>
    </g>
    <g id="ytick_21">
     <g id="line2d_38">
      <g>
       <use xlink:href="#m06c625be69" x="380.544828" y="186.12841" style="stroke: #000000; stroke-width: 0.8"/>
      </g>
     </g>
    </g>
    <g id="ytick_22">
     <g id="line2d_39">
      <g>
       <use xlink:href="#m06c625be69" x="380.544828" y="152.560513" style="stroke: #000000; stroke-width: 0.8"/>
      </g>
     </g>
    </g>
    <g id="ytick_23">
     <g id="line2d_40">
      <g>
       <use xlink:href="#m06c625be69" x="380.544828" y="118.992616" style="stroke: #000000; stroke-width: 0.8"/>
      </g>
     </g>
    </g>
    <g id="ytick_24">
     <g id="line2d_41">
      <g>
       <use xlink:href="#m06c625be69" x="380.544828" y="85.424718" style="stroke: #000000; stroke-width: 0.8"/>
      </g>
     </g>
    </g>
   </g>
   <g id="patch_133">
    <path d="M 380.544828 320.4 
L 380.544828 54 
" style="fill: none; stroke: #000000; stroke-width: 0.8; stroke-linejoin: miter; stroke-linecap: square"/>
   </g>
   <g id="patch_134">
    <path d="M 524.855172 320.4 
L 524.855172 54 
" style="fill: none; stroke: #000000; stroke-width: 0.8; stroke-linejoin: miter; stroke-linecap: square"/>
   </g>
   <g id="patch_135">
    <path d="M 380.544828 320.4 
L 524.855172 320.4 
" style="fill: none; stroke: #000000; stroke-width: 0.8; stroke-linejoin: miter; stroke-linecap: square"/>
   </g>
   <g id="patch_136">
    <path d="M 380.544828 54 
L 524.855172 54 
" style="fill: none; stroke: #000000; stroke-width: 0.8; stroke-linejoin: miter; stroke-linecap: square"/>
   </g>
   <g id="text_28">
    <!-- Positive -->
    <g transform="translate(433.5 48) scale(0.096 -0.096)">
     <defs>
      <path id="SimHei-50" d="M 2950 3100 
Q 2950 2500 2600 2150 
Q 2250 1800 1625 1800 
L 900 1800 
L 900 125 
L 325 125 
L 325 4400 
L 1625 4400 
Q 2250 4400 2600 4050 
Q 2950 3700 2950 3100 
z
M 2375 3100 
Q 2375 3575 2150 3750 
Q 1925 3925 1475 3925 
L 900 3925 
L 900 2275 
L 1475 2275 
Q 1925 2275 2150 2450 
Q 2375 2625 2375 3100 
z
" transform="scale(0.015625)"/>
      <path id="SimHei-6f" d="M 2925 1525 
Q 2925 875 2525 475 
Q 2125 75 1575 75 
Q 1025 75 625 475 
Q 225 875 225 1525 
Q 225 2175 625 2575 
Q 1025 2975 1575 2975 
Q 2125 2975 2525 2575 
Q 2925 2175 2925 1525 
z
M 2375 1525 
Q 2375 2025 2125 2275 
Q 1875 2525 1575 2525 
Q 1275 2525 1025 2275 
Q 775 2025 775 1525 
Q 775 1025 1025 775 
Q 1275 525 1575 525 
Q 1875 525 2125 775 
Q 2375 1025 2375 1525 
z
" transform="scale(0.015625)"/>
      <path id="SimHei-73" d="M 2750 900 
Q 2750 500 2437 287 
Q 2125 75 1650 75 
Q 1050 75 725 312 
Q 400 550 400 1000 
L 900 1000 
Q 900 700 1112 600 
Q 1325 500 1625 500 
Q 1925 500 2075 612 
Q 2225 725 2225 900 
Q 2225 1025 2100 1150 
Q 1975 1275 1475 1350 
Q 900 1425 687 1637 
Q 475 1850 475 2200 
Q 475 2500 762 2737 
Q 1050 2975 1600 2975 
Q 2100 2975 2387 2750 
Q 2675 2525 2675 2150 
L 2175 2150 
Q 2175 2375 2012 2462 
Q 1850 2550 1600 2550 
Q 1275 2550 1137 2437 
Q 1000 2325 1000 2175 
Q 1000 2000 1125 1900 
Q 1250 1800 1650 1750 
Q 2300 1650 2525 1437 
Q 2750 1225 2750 900 
z
" transform="scale(0.015625)"/>
     </defs>
     <use xlink:href="#SimHei-50"/>
     <use xlink:href="#SimHei-6f" x="50"/>
     <use xlink:href="#SimHei-73" x="100"/>
     <use xlink:href="#SimHei-69" x="150"/>
     <use xlink:href="#SimHei-74" x="200"/>
     <use xlink:href="#SimHei-69" x="250"/>
     <use xlink:href="#SimHei-76" x="300"/>
     <use xlink:href="#SimHei-65" x="350"/>
    </g>
   </g>
  </g>
  <g id="axes_4">
   <g id="patch_137">
    <path d="M 553.717241 320.4 
L 698.027586 320.4 
L 698.027586 54 
L 553.717241 54 
z
" style="fill: #ffffff"/>
   </g>
   <g id="patch_138">
    <path d="M 560.276803 320.4 
L 563.556583 320.4 
L 563.556583 231.439151 
L 560.276803 231.439151 
z
" clip-path="url(#p009d4f701d)" style="fill: #1f77b4; opacity: 0.5"/>
   </g>
   <g id="patch_139">
    <path d="M 563.556583 320.4 
L 566.836364 320.4 
L 566.836364 185.760023 
L 563.556583 185.760023 
z
" clip-path="url(#p009d4f701d)" style="fill: #1f77b4; opacity: 0.5"/>
   </g>
   <g id="patch_140">
    <path d="M 566.836364 320.4 
L 570.116144 320.4 
L 570.116144 200.743805 
L 566.836364 200.743805 
z
" clip-path="url(#p009d4f701d)" style="fill: #1f77b4; opacity: 0.5"/>
   </g>
   <g id="patch_141">
    <path d="M 570.116144 320.4 
L 573.395925 320.4 
L 573.395925 224.546611 
L 570.116144 224.546611 
z
" clip-path="url(#p009d4f701d)" style="fill: #1f77b4; opacity: 0.5"/>
   </g>
   <g id="patch_142">
    <path d="M 573.395925 320.4 
L 576.675705 320.4 
L 576.675705 243.383365 
L 573.395925 243.383365 
z
" clip-path="url(#p009d4f701d)" style="fill: #1f77b4; opacity: 0.5"/>
   </g>
   <g id="patch_143">
    <path d="M 576.675705 320.4 
L 579.955486 320.4 
L 579.955486 248.563472 
L 576.675705 248.563472 
z
" clip-path="url(#p009d4f701d)" style="fill: #1f77b4; opacity: 0.5"/>
   </g>
   <g id="patch_144">
    <path d="M 579.955486 320.4 
L 583.235266 320.4 
L 583.235266 197.062076 
L 579.955486 197.062076 
z
" clip-path="url(#p009d4f701d)" style="fill: #1f77b4; opacity: 0.5"/>
   </g>
   <g id="patch_145">
    <path d="M 583.235266 320.4 
L 586.515047 320.4 
L 586.515047 268.470496 
L 583.235266 268.470496 
z
" clip-path="url(#p009d4f701d)" style="fill: #1f77b4; opacity: 0.5"/>
   </g>
   <g id="patch_146">
    <path d="M 586.515047 320.4 
L 589.794828 320.4 
L 589.794828 271.039144 
L 586.515047 271.039144 
z
" clip-path="url(#p009d4f701d)" style="fill: #1f77b4; opacity: 0.5"/>
   </g>
   <g id="patch_147">
    <path d="M 589.794828 320.4 
L 593.074608 320.4 
L 593.074608 276.69017 
L 589.794828 276.69017 
z
" clip-path="url(#p009d4f701d)" style="fill: #1f77b4; opacity: 0.5"/>
   </g>
   <g id="patch_148">
    <path d="M 593.074608 320.4 
L 596.354389 320.4 
L 596.354389 279.34444 
L 593.074608 279.34444 
z
" clip-path="url(#p009d4f701d)" style="fill: #1f77b4; opacity: 0.5"/>
   </g>
   <g id="patch_149">
    <path d="M 596.354389 320.4 
L 599.634169 320.4 
L 599.634169 287.178817 
L 596.354389 287.178817 
z
" clip-path="url(#p009d4f701d)" style="fill: #1f77b4; opacity: 0.5"/>
   </g>
   <g id="patch_150">
    <path d="M 599.634169 320.4 
L 602.91395 320.4 
L 602.91395 290.346816 
L 599.634169 290.346816 
z
" clip-path="url(#p009d4f701d)" style="fill: #1f77b4; opacity: 0.5"/>
   </g>
   <g id="patch_151">
    <path d="M 602.91395 320.4 
L 606.19373 320.4 
L 606.19373 267.614279 
L 602.91395 267.614279 
z
" clip-path="url(#p009d4f701d)" style="fill: #1f77b4; opacity: 0.5"/>
   </g>
   <g id="patch_152">
    <path d="M 606.19373 320.4 
L 609.473511 320.4 
L 609.473511 299.765193 
L 606.19373 299.765193 
z
" clip-path="url(#p009d4f701d)" style="fill: #1f77b4; opacity: 0.5"/>
   </g>
   <g id="patch_153">
    <path d="M 609.473511 320.4 
L 612.753292 320.4 
L 612.753292 301.905733 
L 609.473511 301.905733 
z
" clip-path="url(#p009d4f701d)" style="fill: #1f77b4; opacity: 0.5"/>
   </g>
   <g id="patch_154">
    <path d="M 612.753292 320.4 
L 616.033072 320.4 
L 616.033072 304.345949 
L 612.753292 304.345949 
z
" clip-path="url(#p009d4f701d)" style="fill: #1f77b4; opacity: 0.5"/>
   </g>
   <g id="patch_155">
    <path d="M 616.033072 320.4 
L 619.312853 320.4 
L 619.312853 305.844327 
L 616.033072 305.844327 
z
" clip-path="url(#p009d4f701d)" style="fill: #1f77b4; opacity: 0.5"/>
   </g>
   <g id="patch_156">
    <path d="M 619.312853 320.4 
L 622.592633 320.4 
L 622.592633 307.556759 
L 619.312853 307.556759 
z
" clip-path="url(#p009d4f701d)" style="fill: #1f77b4; opacity: 0.5"/>
   </g>
   <g id="patch_157">
    <path d="M 622.592633 320.4 
L 625.872414 320.4 
L 625.872414 309.568867 
L 622.592633 309.568867 
z
" clip-path="url(#p009d4f701d)" style="fill: #1f77b4; opacity: 0.5"/>
   </g>
   <g id="patch_158">
    <path d="M 625.872414 320.4 
L 629.152194 320.4 
L 629.152194 303.018814 
L 625.872414 303.018814 
z
" clip-path="url(#p009d4f701d)" style="fill: #1f77b4; opacity: 0.5"/>
   </g>
   <g id="patch_159">
    <path d="M 629.152194 320.4 
L 632.431975 320.4 
L 632.431975 313.764325 
L 629.152194 313.764325 
z
" clip-path="url(#p009d4f701d)" style="fill: #1f77b4; opacity: 0.5"/>
   </g>
   <g id="patch_160">
    <path d="M 632.431975 320.4 
L 635.711755 320.4 
L 635.711755 313.764325 
L 632.431975 313.764325 
z
" clip-path="url(#p009d4f701d)" style="fill: #1f77b4; opacity: 0.5"/>
   </g>
   <g id="patch_161">
    <path d="M 635.711755 320.4 
L 638.991536 320.4 
L 638.991536 315.134271 
L 635.711755 315.134271 
z
" clip-path="url(#p009d4f701d)" style="fill: #1f77b4; opacity: 0.5"/>
   </g>
   <g id="patch_162">
    <path d="M 638.991536 320.4 
L 642.271317 320.4 
L 642.271317 315.862055 
L 638.991536 315.862055 
z
" clip-path="url(#p009d4f701d)" style="fill: #1f77b4; opacity: 0.5"/>
   </g>
   <g id="patch_163">
    <path d="M 642.271317 320.4 
L 645.551097 320.4 
L 645.551097 316.204541 
L 642.271317 316.204541 
z
" clip-path="url(#p009d4f701d)" style="fill: #1f77b4; opacity: 0.5"/>
   </g>
   <g id="patch_164">
    <path d="M 645.551097 320.4 
L 648.830878 320.4 
L 648.830878 314.920217 
L 645.551097 314.920217 
z
" clip-path="url(#p009d4f701d)" style="fill: #1f77b4; opacity: 0.5"/>
   </g>
   <g id="patch_165">
    <path d="M 648.830878 320.4 
L 652.110658 320.4 
L 652.110658 318.173838 
L 648.830878 318.173838 
z
" clip-path="url(#p009d4f701d)" style="fill: #1f77b4; opacity: 0.5"/>
   </g>
   <g id="patch_166">
    <path d="M 652.110658 320.4 
L 655.390439 320.4 
L 655.390439 318.816 
L 652.110658 318.816 
z
" clip-path="url(#p009d4f701d)" style="fill: #1f77b4; opacity: 0.5"/>
   </g>
   <g id="patch_167">
    <path d="M 655.390439 320.4 
L 658.670219 320.4 
L 658.670219 318.773189 
L 655.390439 318.773189 
z
" clip-path="url(#p009d4f701d)" style="fill: #1f77b4; opacity: 0.5"/>
   </g>
   <g id="patch_168">
    <path d="M 658.670219 320.4 
L 661.95 320.4 
L 661.95 319.030054 
L 658.670219 319.030054 
z
" clip-path="url(#p009d4f701d)" style="fill: #1f77b4; opacity: 0.5"/>
   </g>
   <g id="patch_169">
    <path d="M 661.95 320.4 
L 665.229781 320.4 
L 665.229781 319.629406 
L 661.95 319.629406 
z
" clip-path="url(#p009d4f701d)" style="fill: #1f77b4; opacity: 0.5"/>
   </g>
   <g id="patch_170">
    <path d="M 665.229781 320.4 
L 668.509561 320.4 
L 668.509561 319.32973 
L 665.229781 319.32973 
z
" clip-path="url(#p009d4f701d)" style="fill: #1f77b4; opacity: 0.5"/>
   </g>
   <g id="patch_171">
    <path d="M 668.509561 320.4 
L 671.789342 320.4 
L 671.789342 319.458162 
L 668.509561 319.458162 
z
" clip-path="url(#p009d4f701d)" style="fill: #1f77b4; opacity: 0.5"/>
   </g>
   <g id="patch_172">
    <path d="M 671.789342 320.4 
L 675.069122 320.4 
L 675.069122 320.143135 
L 671.789342 320.143135 
z
" clip-path="url(#p009d4f701d)" style="fill: #1f77b4; opacity: 0.5"/>
   </g>
   <g id="patch_173">
    <path d="M 675.069122 320.4 
L 678.348903 320.4 
L 678.348903 320.100324 
L 675.069122 320.100324 
z
" clip-path="url(#p009d4f701d)" style="fill: #1f77b4; opacity: 0.5"/>
   </g>
   <g id="patch_174">
    <path d="M 678.348903 320.4 
L 681.628683 320.4 
L 681.628683 320.314378 
L 678.348903 320.314378 
z
" clip-path="url(#p009d4f701d)" style="fill: #1f77b4; opacity: 0.5"/>
   </g>
   <g id="patch_175">
    <path d="M 681.628683 320.4 
L 684.908464 320.4 
L 684.908464 320.271568 
L 681.628683 320.271568 
z
" clip-path="url(#p009d4f701d)" style="fill: #1f77b4; opacity: 0.5"/>
   </g>
   <g id="patch_176">
    <path d="M 684.908464 320.4 
L 688.188245 320.4 
L 688.188245 320.314378 
L 684.908464 320.314378 
z
" clip-path="url(#p009d4f701d)" style="fill: #1f77b4; opacity: 0.5"/>
   </g>
   <g id="patch_177">
    <path d="M 688.188245 320.4 
L 691.468025 320.4 
L 691.468025 320.228757 
L 688.188245 320.228757 
z
" clip-path="url(#p009d4f701d)" style="fill: #1f77b4; opacity: 0.5"/>
   </g>
   <g id="matplotlib.axis_7">
    <g id="xtick_18">
     <g id="line2d_42">
      <g>
       <use xlink:href="#m4895e83250" x="560.276803" y="320.4" style="stroke: #000000; stroke-width: 0.8"/>
      </g>
     </g>
     <g id="text_29">
      <!-- 0 -->
      <g transform="translate(558.276803 332.9) scale(0.08 -0.08)">
       <use xlink:href="#SimHei-30"/>
      </g>
     </g>
    </g>
    <g id="xtick_19">
     <g id="line2d_43">
      <g>
       <use xlink:href="#m4895e83250" x="588.796634" y="320.4" style="stroke: #000000; stroke-width: 0.8"/>
      </g>
     </g>
     <g id="text_30">
      <!-- 10 -->
      <g transform="translate(584.796634 332.9) scale(0.08 -0.08)">
       <use xlink:href="#SimHei-31"/>
       <use xlink:href="#SimHei-30" x="50"/>
      </g>
     </g>
    </g>
    <g id="xtick_20">
     <g id="line2d_44">
      <g>
       <use xlink:href="#m4895e83250" x="617.316464" y="320.4" style="stroke: #000000; stroke-width: 0.8"/>
      </g>
     </g>
     <g id="text_31">
      <!-- 20 -->
      <g transform="translate(613.316464 332.9) scale(0.08 -0.08)">
       <use xlink:href="#SimHei-32"/>
       <use xlink:href="#SimHei-30" x="50"/>
      </g>
     </g>
    </g>
    <g id="xtick_21">
     <g id="line2d_45">
      <g>
       <use xlink:href="#m4895e83250" x="645.836295" y="320.4" style="stroke: #000000; stroke-width: 0.8"/>
      </g>
     </g>
     <g id="text_32">
      <!-- 30 -->
      <g transform="translate(641.836295 332.9) scale(0.08 -0.08)">
       <use xlink:href="#SimHei-33"/>
       <use xlink:href="#SimHei-30" x="50"/>
      </g>
     </g>
    </g>
    <g id="xtick_22">
     <g id="line2d_46">
      <g>
       <use xlink:href="#m4895e83250" x="674.356126" y="320.4" style="stroke: #000000; stroke-width: 0.8"/>
      </g>
     </g>
     <g id="text_33">
      <!-- 40 -->
      <g transform="translate(670.356126 332.9) scale(0.08 -0.08)">
       <use xlink:href="#SimHei-34"/>
       <use xlink:href="#SimHei-30" x="50"/>
      </g>
     </g>
    </g>
   </g>
   <g id="matplotlib.axis_8">
    <g id="ytick_25">
     <g id="line2d_47">
      <g>
       <use xlink:href="#m06c625be69" x="553.717241" y="320.4" style="stroke: #000000; stroke-width: 0.8"/>
      </g>
     </g>
    </g>
    <g id="ytick_26">
     <g id="line2d_48">
      <g>
       <use xlink:href="#m06c625be69" x="553.717241" y="286.832103" style="stroke: #000000; stroke-width: 0.8"/>
      </g>
     </g>
    </g>
    <g id="ytick_27">
     <g id="line2d_49">
      <g>
       <use xlink:href="#m06c625be69" x="553.717241" y="253.264205" style="stroke: #000000; stroke-width: 0.8"/>
      </g>
     </g>
    </g>
    <g id="ytick_28">
     <g id="line2d_50">
      <g>
       <use xlink:href="#m06c625be69" x="553.717241" y="219.696308" style="stroke: #000000; stroke-width: 0.8"/>
      </g>
     </g>
    </g>
    <g id="ytick_29">
     <g id="line2d_51">
      <g>
       <use xlink:href="#m06c625be69" x="553.717241" y="186.12841" style="stroke: #000000; stroke-width: 0.8"/>
      </g>
     </g>
    </g>
    <g id="ytick_30">
     <g id="line2d_52">
      <g>
       <use xlink:href="#m06c625be69" x="553.717241" y="152.560513" style="stroke: #000000; stroke-width: 0.8"/>
      </g>
     </g>
    </g>
    <g id="ytick_31">
     <g id="line2d_53">
      <g>
       <use xlink:href="#m06c625be69" x="553.717241" y="118.992616" style="stroke: #000000; stroke-width: 0.8"/>
      </g>
     </g>
    </g>
    <g id="ytick_32">
     <g id="line2d_54">
      <g>
       <use xlink:href="#m06c625be69" x="553.717241" y="85.424718" style="stroke: #000000; stroke-width: 0.8"/>
      </g>
     </g>
    </g>
   </g>
   <g id="patch_178">
    <path d="M 553.717241 320.4 
L 553.717241 54 
" style="fill: none; stroke: #000000; stroke-width: 0.8; stroke-linejoin: miter; stroke-linecap: square"/>
   </g>
   <g id="patch_179">
    <path d="M 698.027586 320.4 
L 698.027586 54 
" style="fill: none; stroke: #000000; stroke-width: 0.8; stroke-linejoin: miter; stroke-linecap: square"/>
   </g>
   <g id="patch_180">
    <path d="M 553.717241 320.4 
L 698.027586 320.4 
" style="fill: none; stroke: #000000; stroke-width: 0.8; stroke-linejoin: miter; stroke-linecap: square"/>
   </g>
   <g id="patch_181">
    <path d="M 553.717241 54 
L 698.027586 54 
" style="fill: none; stroke: #000000; stroke-width: 0.8; stroke-linejoin: miter; stroke-linecap: square"/>
   </g>
   <g id="text_34">
    <!-- Somewhat negative -->
    <g transform="translate(585.072414 48) scale(0.096 -0.096)">
     <defs>
      <path id="SimHei-53" d="M 2900 1325 
Q 2900 750 2537 412 
Q 2175 75 1550 75 
Q 925 75 575 425 
Q 225 775 225 1300 
L 225 1475 
L 800 1475 
L 800 1325 
Q 800 950 1025 750 
Q 1250 550 1550 550 
Q 1950 550 2137 762 
Q 2325 975 2325 1275 
Q 2325 1525 2100 1737 
Q 1875 1950 1450 2125 
Q 850 2350 587 2625 
Q 325 2900 325 3275 
Q 325 3800 687 4125 
Q 1050 4450 1550 4450 
Q 2200 4450 2487 4062 
Q 2775 3675 2775 3225 
L 2200 3225 
Q 2225 3500 2050 3725 
Q 1875 3950 1550 3950 
Q 1250 3950 1075 3787 
Q 900 3625 900 3350 
Q 900 3125 1037 2962 
Q 1175 2800 1750 2575 
Q 2300 2350 2600 2037 
Q 2900 1725 2900 1325 
z
" transform="scale(0.015625)"/>
      <path id="SimHei-6d" d="M 3050 125 
L 2550 125 
L 2550 2150 
Q 2550 2300 2500 2400 
Q 2450 2500 2300 2500 
Q 2125 2500 1975 2312 
Q 1825 2125 1825 1825 
L 1825 125 
L 1325 125 
L 1325 2150 
Q 1325 2300 1275 2400 
Q 1225 2500 1075 2500 
Q 900 2500 750 2312 
Q 600 2125 600 1825 
L 600 125 
L 100 125 
L 100 2925 
L 600 2925 
L 600 2550 
Q 725 2750 900 2862 
Q 1075 2975 1275 2975 
Q 1475 2975 1612 2862 
Q 1750 2750 1800 2550 
Q 1925 2750 2087 2862 
Q 2250 2975 2450 2975 
Q 2750 2975 2900 2812 
Q 3050 2650 3050 2350 
L 3050 125 
z
" transform="scale(0.015625)"/>
      <path id="SimHei-77" d="M 3075 2925 
L 2450 75 
L 1975 75 
L 1575 2250 
L 1525 2250 
L 1125 75 
L 650 75 
L 25 2925 
L 550 2925 
L 875 1050 
L 925 1050 
L 1275 2925 
L 1825 2925 
L 2175 1050 
L 2225 1050 
L 2550 2925 
L 3075 2925 
z
" transform="scale(0.015625)"/>
      <path id="SimHei-68" d="M 2800 125 
L 2300 125 
L 2300 1925 
Q 2300 2225 2150 2400 
Q 2000 2575 1750 2575 
Q 1425 2575 1137 2237 
Q 850 1900 850 1400 
L 850 125 
L 350 125 
L 350 4400 
L 850 4400 
L 850 2400 
Q 1050 2675 1287 2825 
Q 1525 2975 1900 2975 
Q 2350 2975 2575 2725 
Q 2800 2475 2800 2100 
L 2800 125 
z
" transform="scale(0.015625)"/>
      <path id="SimHei-20" transform="scale(0.015625)"/>
      <path id="SimHei-6e" d="M 2800 125 
L 2300 125 
L 2300 1925 
Q 2300 2225 2150 2400 
Q 2000 2575 1750 2575 
Q 1425 2575 1137 2237 
Q 850 1900 850 1400 
L 850 125 
L 350 125 
L 350 2925 
L 850 2925 
L 850 2400 
Q 1050 2675 1287 2825 
Q 1525 2975 1900 2975 
Q 2350 2975 2575 2725 
Q 2800 2475 2800 2100 
L 2800 125 
z
" transform="scale(0.015625)"/>
     </defs>
     <use xlink:href="#SimHei-53"/>
     <use xlink:href="#SimHei-6f" x="50"/>
     <use xlink:href="#SimHei-6d" x="100"/>
     <use xlink:href="#SimHei-65" x="150"/>
     <use xlink:href="#SimHei-77" x="200"/>
     <use xlink:href="#SimHei-68" x="250"/>
     <use xlink:href="#SimHei-61" x="300"/>
     <use xlink:href="#SimHei-74" x="350"/>
     <use xlink:href="#SimHei-20" x="400"/>
     <use xlink:href="#SimHei-6e" x="450"/>
     <use xlink:href="#SimHei-65" x="500"/>
     <use xlink:href="#SimHei-67" x="550"/>
     <use xlink:href="#SimHei-61" x="600"/>
     <use xlink:href="#SimHei-74" x="650"/>
     <use xlink:href="#SimHei-69" x="700"/>
     <use xlink:href="#SimHei-76" x="750"/>
     <use xlink:href="#SimHei-65" x="800"/>
    </g>
   </g>
  </g>
  <g id="axes_5">
   <g id="patch_182">
    <path d="M 726.889655 320.4 
L 871.2 320.4 
L 871.2 54 
L 726.889655 54 
z
" style="fill: #ffffff"/>
   </g>
   <g id="patch_183">
    <path d="M 733.449216 320.4 
L 736.728997 320.4 
L 736.728997 84.203444 
L 733.449216 84.203444 
z
" clip-path="url(#pc71fd37d44)" style="fill: #1f77b4; opacity: 0.5"/>
   </g>
   <g id="patch_184">
    <path d="M 736.728997 320.4 
L 740.008777 320.4 
L 740.008777 167.072586 
L 736.728997 167.072586 
z
" clip-path="url(#pc71fd37d44)" style="fill: #1f77b4; opacity: 0.5"/>
   </g>
   <g id="patch_185">
    <path d="M 740.008777 320.4 
L 743.288558 320.4 
L 743.288558 206.007253 
L 740.008777 206.007253 
z
" clip-path="url(#pc71fd37d44)" style="fill: #1f77b4; opacity: 0.5"/>
   </g>
   <g id="patch_186">
    <path d="M 743.288558 320.4 
L 746.568339 320.4 
L 746.568339 231.325424 
L 743.288558 231.325424 
z
" clip-path="url(#pc71fd37d44)" style="fill: #1f77b4; opacity: 0.5"/>
   </g>
   <g id="patch_187">
    <path d="M 746.568339 320.4 
L 749.848119 320.4 
L 749.848119 246.041168 
L 746.568339 246.041168 
z
" clip-path="url(#pc71fd37d44)" style="fill: #1f77b4; opacity: 0.5"/>
   </g>
   <g id="patch_188">
    <path d="M 749.848119 320.4 
L 753.1279 320.4 
L 753.1279 257.884683 
L 749.848119 257.884683 
z
" clip-path="url(#pc71fd37d44)" style="fill: #1f77b4; opacity: 0.5"/>
   </g>
   <g id="patch_189">
    <path d="M 753.1279 320.4 
L 756.40768 320.4 
L 756.40768 220.545699 
L 753.1279 220.545699 
z
" clip-path="url(#pc71fd37d44)" style="fill: #1f77b4; opacity: 0.5"/>
   </g>
   <g id="patch_190">
    <path d="M 756.40768 320.4 
L 759.687461 320.4 
L 759.687461 281.039817 
L 756.40768 281.039817 
z
" clip-path="url(#pc71fd37d44)" style="fill: #1f77b4; opacity: 0.5"/>
   </g>
   <g id="patch_191">
    <path d="M 759.687461 320.4 
L 762.967241 320.4 
L 762.967241 286.146003 
L 759.687461 286.146003 
z
" clip-path="url(#pc71fd37d44)" style="fill: #1f77b4; opacity: 0.5"/>
   </g>
   <g id="patch_192">
    <path d="M 762.967241 320.4 
L 766.247022 320.4 
L 766.247022 290.294779 
L 762.967241 290.294779 
z
" clip-path="url(#pc71fd37d44)" style="fill: #1f77b4; opacity: 0.5"/>
   </g>
   <g id="patch_193">
    <path d="M 766.247022 320.4 
L 769.526803 320.4 
L 769.526803 293.06063 
L 766.247022 293.06063 
z
" clip-path="url(#pc71fd37d44)" style="fill: #1f77b4; opacity: 0.5"/>
   </g>
   <g id="patch_194">
    <path d="M 769.526803 320.4 
L 772.806583 320.4 
L 772.806583 295.720102 
L 769.526803 295.720102 
z
" clip-path="url(#pc71fd37d44)" style="fill: #1f77b4; opacity: 0.5"/>
   </g>
   <g id="patch_195">
    <path d="M 772.806583 320.4 
L 776.086364 320.4 
L 776.086364 298.73417 
L 772.806583 298.73417 
z
" clip-path="url(#pc71fd37d44)" style="fill: #1f77b4; opacity: 0.5"/>
   </g>
   <g id="patch_196">
    <path d="M 776.086364 320.4 
L 779.366144 320.4 
L 779.366144 281.855389 
L 776.086364 281.855389 
z
" clip-path="url(#pc71fd37d44)" style="fill: #1f77b4; opacity: 0.5"/>
   </g>
   <g id="patch_197">
    <path d="M 779.366144 320.4 
L 782.645925 320.4 
L 782.645925 303.875815 
L 779.366144 303.875815 
z
" clip-path="url(#pc71fd37d44)" style="fill: #1f77b4; opacity: 0.5"/>
   </g>
   <g id="patch_198">
    <path d="M 782.645925 320.4 
L 785.925705 320.4 
L 785.925705 307.882753 
L 782.645925 307.882753 
z
" clip-path="url(#pc71fd37d44)" style="fill: #1f77b4; opacity: 0.5"/>
   </g>
   <g id="patch_199">
    <path d="M 785.925705 320.4 
L 789.205486 320.4 
L 789.205486 307.740914 
L 785.925705 307.740914 
z
" clip-path="url(#pc71fd37d44)" style="fill: #1f77b4; opacity: 0.5"/>
   </g>
   <g id="patch_200">
    <path d="M 789.205486 320.4 
L 792.485266 320.4 
L 792.485266 307.669995 
L 789.205486 307.669995 
z
" clip-path="url(#pc71fd37d44)" style="fill: #1f77b4; opacity: 0.5"/>
   </g>
   <g id="patch_201">
    <path d="M 792.485266 320.4 
L 795.765047 320.4 
L 795.765047 309.939411 
L 792.485266 309.939411 
z
" clip-path="url(#pc71fd37d44)" style="fill: #1f77b4; opacity: 0.5"/>
   </g>
   <g id="patch_202">
    <path d="M 795.765047 320.4 
L 799.044828 320.4 
L 799.044828 311.783311 
L 795.765047 311.783311 
z
" clip-path="url(#pc71fd37d44)" style="fill: #1f77b4; opacity: 0.5"/>
   </g>
   <g id="patch_203">
    <path d="M 799.044828 320.4 
L 802.324608 320.4 
L 802.324608 306.428908 
L 799.044828 306.428908 
z
" clip-path="url(#pc71fd37d44)" style="fill: #1f77b4; opacity: 0.5"/>
   </g>
   <g id="patch_204">
    <path d="M 802.324608 320.4 
L 805.604389 320.4 
L 805.604389 315.045597 
L 802.324608 315.045597 
z
" clip-path="url(#pc71fd37d44)" style="fill: #1f77b4; opacity: 0.5"/>
   </g>
   <g id="patch_205">
    <path d="M 805.604389 320.4 
L 808.884169 320.4 
L 808.884169 316.038466 
L 805.604389 316.038466 
z
" clip-path="url(#pc71fd37d44)" style="fill: #1f77b4; opacity: 0.5"/>
   </g>
   <g id="patch_206">
    <path d="M 808.884169 320.4 
L 812.16395 320.4 
L 812.16395 316.180305 
L 808.884169 316.180305 
z
" clip-path="url(#pc71fd37d44)" style="fill: #1f77b4; opacity: 0.5"/>
   </g>
   <g id="patch_207">
    <path d="M 812.16395 320.4 
L 815.44373 320.4 
L 815.44373 317.102255 
L 812.16395 317.102255 
z
" clip-path="url(#pc71fd37d44)" style="fill: #1f77b4; opacity: 0.5"/>
   </g>
   <g id="patch_208">
    <path d="M 815.44373 320.4 
L 818.723511 320.4 
L 818.723511 317.846907 
L 815.44373 317.846907 
z
" clip-path="url(#pc71fd37d44)" style="fill: #1f77b4; opacity: 0.5"/>
   </g>
   <g id="patch_209">
    <path d="M 818.723511 320.4 
L 822.003292 320.4 
L 822.003292 315.045597 
L 818.723511 315.045597 
z
" clip-path="url(#pc71fd37d44)" style="fill: #1f77b4; opacity: 0.5"/>
   </g>
   <g id="patch_210">
    <path d="M 822.003292 320.4 
L 825.283072 320.4 
L 825.283072 318.627019 
L 822.003292 318.627019 
z
" clip-path="url(#pc71fd37d44)" style="fill: #1f77b4; opacity: 0.5"/>
   </g>
   <g id="patch_211">
    <path d="M 825.283072 320.4 
L 828.562853 320.4 
L 828.562853 319.017075 
L 825.283072 319.017075 
z
" clip-path="url(#pc71fd37d44)" style="fill: #1f77b4; opacity: 0.5"/>
   </g>
   <g id="patch_212">
    <path d="M 828.562853 320.4 
L 831.842633 320.4 
L 831.842633 319.265292 
L 828.562853 319.265292 
z
" clip-path="url(#pc71fd37d44)" style="fill: #1f77b4; opacity: 0.5"/>
   </g>
   <g id="patch_213">
    <path d="M 831.842633 320.4 
L 835.122414 320.4 
L 835.122414 319.158913 
L 831.842633 319.158913 
z
" clip-path="url(#pc71fd37d44)" style="fill: #1f77b4; opacity: 0.5"/>
   </g>
   <g id="patch_214">
    <path d="M 835.122414 320.4 
L 838.402194 320.4 
L 838.402194 319.513509 
L 835.122414 319.513509 
z
" clip-path="url(#pc71fd37d44)" style="fill: #1f77b4; opacity: 0.5"/>
   </g>
   <g id="patch_215">
    <path d="M 838.402194 320.4 
L 841.681975 320.4 
L 841.681975 319.868106 
L 838.402194 319.868106 
z
" clip-path="url(#pc71fd37d44)" style="fill: #1f77b4; opacity: 0.5"/>
   </g>
   <g id="patch_216">
    <path d="M 841.681975 320.4 
L 844.961755 320.4 
L 844.961755 319.584429 
L 841.681975 319.584429 
z
" clip-path="url(#pc71fd37d44)" style="fill: #1f77b4; opacity: 0.5"/>
   </g>
   <g id="patch_217">
    <path d="M 844.961755 320.4 
L 848.241536 320.4 
L 848.241536 319.903565 
L 844.961755 319.903565 
z
" clip-path="url(#pc71fd37d44)" style="fill: #1f77b4; opacity: 0.5"/>
   </g>
   <g id="patch_218">
    <path d="M 848.241536 320.4 
L 851.521317 320.4 
L 851.521317 320.151783 
L 848.241536 320.151783 
z
" clip-path="url(#pc71fd37d44)" style="fill: #1f77b4; opacity: 0.5"/>
   </g>
   <g id="patch_219">
    <path d="M 851.521317 320.4 
L 854.801097 320.4 
L 854.801097 320.151783 
L 851.521317 320.151783 
z
" clip-path="url(#pc71fd37d44)" style="fill: #1f77b4; opacity: 0.5"/>
   </g>
   <g id="patch_220">
    <path d="M 854.801097 320.4 
L 858.080878 320.4 
L 858.080878 320.258162 
L 854.801097 320.258162 
z
" clip-path="url(#pc71fd37d44)" style="fill: #1f77b4; opacity: 0.5"/>
   </g>
   <g id="patch_221">
    <path d="M 858.080878 320.4 
L 861.360658 320.4 
L 861.360658 320.116323 
L 858.080878 320.116323 
z
" clip-path="url(#pc71fd37d44)" style="fill: #1f77b4; opacity: 0.5"/>
   </g>
   <g id="patch_222">
    <path d="M 861.360658 320.4 
L 864.640439 320.4 
L 864.640439 320.293621 
L 861.360658 320.293621 
z
" clip-path="url(#pc71fd37d44)" style="fill: #1f77b4; opacity: 0.5"/>
   </g>
   <g id="matplotlib.axis_9">
    <g id="xtick_23">
     <g id="line2d_55">
      <g>
       <use xlink:href="#m4895e83250" x="730.597233" y="320.4" style="stroke: #000000; stroke-width: 0.8"/>
      </g>
     </g>
     <g id="text_35">
      <!-- 0 -->
      <g transform="translate(728.597233 332.9) scale(0.08 -0.08)">
       <use xlink:href="#SimHei-30"/>
      </g>
     </g>
    </g>
    <g id="xtick_24">
     <g id="line2d_56">
      <g>
       <use xlink:href="#m4895e83250" x="759.117064" y="320.4" style="stroke: #000000; stroke-width: 0.8"/>
      </g>
     </g>
     <g id="text_36">
      <!-- 10 -->
      <g transform="translate(755.117064 332.9) scale(0.08 -0.08)">
       <use xlink:href="#SimHei-31"/>
       <use xlink:href="#SimHei-30" x="50"/>
      </g>
     </g>
    </g>
    <g id="xtick_25">
     <g id="line2d_57">
      <g>
       <use xlink:href="#m4895e83250" x="787.636895" y="320.4" style="stroke: #000000; stroke-width: 0.8"/>
      </g>
     </g>
     <g id="text_37">
      <!-- 20 -->
      <g transform="translate(783.636895 332.9) scale(0.08 -0.08)">
       <use xlink:href="#SimHei-32"/>
       <use xlink:href="#SimHei-30" x="50"/>
      </g>
     </g>
    </g>
    <g id="xtick_26">
     <g id="line2d_58">
      <g>
       <use xlink:href="#m4895e83250" x="816.156726" y="320.4" style="stroke: #000000; stroke-width: 0.8"/>
      </g>
     </g>
     <g id="text_38">
      <!-- 30 -->
      <g transform="translate(812.156726 332.9) scale(0.08 -0.08)">
       <use xlink:href="#SimHei-33"/>
       <use xlink:href="#SimHei-30" x="50"/>
      </g>
     </g>
    </g>
    <g id="xtick_27">
     <g id="line2d_59">
      <g>
       <use xlink:href="#m4895e83250" x="844.676557" y="320.4" style="stroke: #000000; stroke-width: 0.8"/>
      </g>
     </g>
     <g id="text_39">
      <!-- 40 -->
      <g transform="translate(840.676557 332.9) scale(0.08 -0.08)">
       <use xlink:href="#SimHei-34"/>
       <use xlink:href="#SimHei-30" x="50"/>
      </g>
     </g>
    </g>
   </g>
   <g id="matplotlib.axis_10">
    <g id="ytick_33">
     <g id="line2d_60">
      <g>
       <use xlink:href="#m06c625be69" x="726.889655" y="320.4" style="stroke: #000000; stroke-width: 0.8"/>
      </g>
     </g>
    </g>
    <g id="ytick_34">
     <g id="line2d_61">
      <g>
       <use xlink:href="#m06c625be69" x="726.889655" y="286.832103" style="stroke: #000000; stroke-width: 0.8"/>
      </g>
     </g>
    </g>
    <g id="ytick_35">
     <g id="line2d_62">
      <g>
       <use xlink:href="#m06c625be69" x="726.889655" y="253.264205" style="stroke: #000000; stroke-width: 0.8"/>
      </g>
     </g>
    </g>
    <g id="ytick_36">
     <g id="line2d_63">
      <g>
       <use xlink:href="#m06c625be69" x="726.889655" y="219.696308" style="stroke: #000000; stroke-width: 0.8"/>
      </g>
     </g>
    </g>
    <g id="ytick_37">
     <g id="line2d_64">
      <g>
       <use xlink:href="#m06c625be69" x="726.889655" y="186.12841" style="stroke: #000000; stroke-width: 0.8"/>
      </g>
     </g>
    </g>
    <g id="ytick_38">
     <g id="line2d_65">
      <g>
       <use xlink:href="#m06c625be69" x="726.889655" y="152.560513" style="stroke: #000000; stroke-width: 0.8"/>
      </g>
     </g>
    </g>
    <g id="ytick_39">
     <g id="line2d_66">
      <g>
       <use xlink:href="#m06c625be69" x="726.889655" y="118.992616" style="stroke: #000000; stroke-width: 0.8"/>
      </g>
     </g>
    </g>
    <g id="ytick_40">
     <g id="line2d_67">
      <g>
       <use xlink:href="#m06c625be69" x="726.889655" y="85.424718" style="stroke: #000000; stroke-width: 0.8"/>
      </g>
     </g>
    </g>
   </g>
   <g id="patch_223">
    <path d="M 726.889655 320.4 
L 726.889655 54 
" style="fill: none; stroke: #000000; stroke-width: 0.8; stroke-linejoin: miter; stroke-linecap: square"/>
   </g>
   <g id="patch_224">
    <path d="M 871.2 320.4 
L 871.2 54 
" style="fill: none; stroke: #000000; stroke-width: 0.8; stroke-linejoin: miter; stroke-linecap: square"/>
   </g>
   <g id="patch_225">
    <path d="M 726.889655 320.4 
L 871.2 320.4 
" style="fill: none; stroke: #000000; stroke-width: 0.8; stroke-linejoin: miter; stroke-linecap: square"/>
   </g>
   <g id="patch_226">
    <path d="M 726.889655 54 
L 871.2 54 
" style="fill: none; stroke: #000000; stroke-width: 0.8; stroke-linejoin: miter; stroke-linecap: square"/>
   </g>
   <g id="text_40">
    <!-- Somewhat positive -->
    <g transform="translate(758.244828 48) scale(0.096 -0.096)">
     <defs>
      <path id="SimHei-70" d="M 2825 1525 
Q 2825 800 2475 425 
Q 2125 50 1625 50 
Q 1350 50 1150 162 
Q 950 275 800 500 
L 800 -800 
L 300 -800 
L 300 2925 
L 800 2925 
L 800 2550 
Q 950 2775 1150 2875 
Q 1350 2975 1625 2975 
Q 2125 2975 2475 2612 
Q 2825 2250 2825 1525 
z
M 2275 1525 
Q 2275 2000 2087 2262 
Q 1900 2525 1525 2525 
Q 1225 2525 1012 2262 
Q 800 2000 800 1525 
Q 800 1050 1012 775 
Q 1225 500 1525 500 
Q 1900 500 2087 775 
Q 2275 1050 2275 1525 
z
" transform="scale(0.015625)"/>
     </defs>
     <use xlink:href="#SimHei-53"/>
     <use xlink:href="#SimHei-6f" x="50"/>
     <use xlink:href="#SimHei-6d" x="100"/>
     <use xlink:href="#SimHei-65" x="150"/>
     <use xlink:href="#SimHei-77" x="200"/>
     <use xlink:href="#SimHei-68" x="250"/>
     <use xlink:href="#SimHei-61" x="300"/>
     <use xlink:href="#SimHei-74" x="350"/>
     <use xlink:href="#SimHei-20" x="400"/>
     <use xlink:href="#SimHei-70" x="450"/>
     <use xlink:href="#SimHei-6f" x="500"/>
     <use xlink:href="#SimHei-73" x="550"/>
     <use xlink:href="#SimHei-69" x="600"/>
     <use xlink:href="#SimHei-74" x="650"/>
     <use xlink:href="#SimHei-69" x="700"/>
     <use xlink:href="#SimHei-76" x="750"/>
     <use xlink:href="#SimHei-65" x="800"/>
    </g>
   </g>
  </g>
  <g id="text_41">
   <!-- Histogram of Phrase Lengths Distribution By Sentiments -->
   <g transform="translate(309.6 13.875) scale(0.096 -0.096)">
    <defs>
     <path id="SimHei-48" d="M 2850 125 
L 2275 125 
L 2275 2125 
L 850 2125 
L 850 125 
L 275 125 
L 275 4400 
L 850 4400 
L 850 2600 
L 2275 2600 
L 2275 4400 
L 2850 4400 
L 2850 125 
z
" transform="scale(0.015625)"/>
     <path id="SimHei-66" d="M 2850 3825 
Q 2725 3900 2550 3950 
Q 2375 4000 2100 4000 
Q 1825 4000 1725 3862 
Q 1625 3725 1625 3525 
L 1625 2925 
L 2650 2925 
L 2650 2525 
L 1625 2525 
L 1625 125 
L 1125 125 
L 1125 2525 
L 275 2525 
L 275 2925 
L 1125 2925 
L 1125 3500 
Q 1125 3950 1400 4200 
Q 1675 4450 2125 4450 
Q 2400 4450 2562 4412 
Q 2725 4375 2850 4325 
L 2850 3825 
z
" transform="scale(0.015625)"/>
     <path id="SimHei-4c" d="M 2900 125 
L 300 125 
L 300 4400 
L 875 4400 
L 875 600 
L 2900 600 
L 2900 125 
z
" transform="scale(0.015625)"/>
     <path id="SimHei-44" d="M 2925 2250 
Q 2925 1100 2437 612 
Q 1950 125 1125 125 
L 275 125 
L 275 4400 
L 1125 4400 
Q 2050 4400 2487 3900 
Q 2925 3400 2925 2250 
z
M 2325 2250 
Q 2325 3175 2025 3550 
Q 1725 3925 1125 3925 
L 850 3925 
L 850 600 
L 1125 600 
Q 1725 600 2025 962 
Q 2325 1325 2325 2250 
z
" transform="scale(0.015625)"/>
     <path id="SimHei-62" d="M 2825 1525 
Q 2825 800 2475 437 
Q 2125 75 1625 75 
Q 1350 75 1150 175 
Q 950 275 800 500 
L 800 125 
L 300 125 
L 300 4400 
L 800 4400 
L 800 2550 
Q 950 2775 1150 2887 
Q 1350 3000 1625 3000 
Q 2125 3000 2475 2625 
Q 2825 2250 2825 1525 
z
M 2275 1525 
Q 2275 2000 2087 2275 
Q 1900 2550 1525 2550 
Q 1225 2550 1012 2275 
Q 800 2000 800 1525 
Q 800 1050 1012 787 
Q 1225 525 1525 525 
Q 1900 525 2087 787 
Q 2275 1050 2275 1525 
z
" transform="scale(0.015625)"/>
     <path id="SimHei-42" d="M 2950 1400 
Q 2950 675 2550 400 
Q 2150 125 1525 125 
L 275 125 
L 275 4400 
L 1575 4400 
Q 2200 4400 2512 4075 
Q 2825 3750 2825 3300 
Q 2825 2850 2612 2637 
Q 2400 2425 2175 2350 
Q 2475 2275 2712 2037 
Q 2950 1800 2950 1400 
z
M 2250 3300 
Q 2250 3625 2062 3775 
Q 1875 3925 1600 3925 
L 850 3925 
L 850 2600 
L 1575 2600 
Q 1850 2600 2050 2762 
Q 2250 2925 2250 3300 
z
M 2350 1400 
Q 2350 1800 2087 1962 
Q 1825 2125 1500 2125 
L 850 2125 
L 850 600 
L 1425 600 
Q 1875 600 2112 775 
Q 2350 950 2350 1400 
z
" transform="scale(0.015625)"/>
     <path id="SimHei-79" d="M 2900 2925 
L 1750 -100 
Q 1650 -450 1450 -625 
Q 1250 -800 950 -800 
Q 825 -800 712 -787 
Q 600 -775 500 -725 
L 500 -225 
Q 600 -275 700 -300 
Q 800 -325 875 -325 
Q 1075 -325 1150 -262 
Q 1225 -200 1300 25 
L 200 2925 
L 750 2925 
L 1550 725 
L 1575 725 
L 2350 2925 
L 2900 2925 
z
" transform="scale(0.015625)"/>
    </defs>
    <use xlink:href="#SimHei-48"/>
    <use xlink:href="#SimHei-69" x="50"/>
    <use xlink:href="#SimHei-73" x="100"/>
    <use xlink:href="#SimHei-74" x="150"/>
    <use xlink:href="#SimHei-6f" x="200"/>
    <use xlink:href="#SimHei-67" x="250"/>
    <use xlink:href="#SimHei-72" x="300"/>
    <use xlink:href="#SimHei-61" x="350"/>
    <use xlink:href="#SimHei-6d" x="400"/>
    <use xlink:href="#SimHei-20" x="450"/>
    <use xlink:href="#SimHei-6f" x="500"/>
    <use xlink:href="#SimHei-66" x="550"/>
    <use xlink:href="#SimHei-20" x="600"/>
    <use xlink:href="#SimHei-50" x="650"/>
    <use xlink:href="#SimHei-68" x="700"/>
    <use xlink:href="#SimHei-72" x="750"/>
    <use xlink:href="#SimHei-61" x="800"/>
    <use xlink:href="#SimHei-73" x="850"/>
    <use xlink:href="#SimHei-65" x="900"/>
    <use xlink:href="#SimHei-20" x="950"/>
    <use xlink:href="#SimHei-4c" x="1000"/>
    <use xlink:href="#SimHei-65" x="1050"/>
    <use xlink:href="#SimHei-6e" x="1100"/>
    <use xlink:href="#SimHei-67" x="1150"/>
    <use xlink:href="#SimHei-74" x="1200"/>
    <use xlink:href="#SimHei-68" x="1250"/>
    <use xlink:href="#SimHei-73" x="1300"/>
    <use xlink:href="#SimHei-20" x="1350"/>
    <use xlink:href="#SimHei-44" x="1400"/>
    <use xlink:href="#SimHei-69" x="1450"/>
    <use xlink:href="#SimHei-73" x="1500"/>
    <use xlink:href="#SimHei-74" x="1550"/>
    <use xlink:href="#SimHei-72" x="1600"/>
    <use xlink:href="#SimHei-69" x="1650"/>
    <use xlink:href="#SimHei-62" x="1700"/>
    <use xlink:href="#SimHei-75" x="1750"/>
    <use xlink:href="#SimHei-74" x="1800"/>
    <use xlink:href="#SimHei-69" x="1850"/>
    <use xlink:href="#SimHei-6f" x="1900"/>
    <use xlink:href="#SimHei-6e" x="1950"/>
    <use xlink:href="#SimHei-20" x="2000"/>
    <use xlink:href="#SimHei-42" x="2050"/>
    <use xlink:href="#SimHei-79" x="2100"/>
    <use xlink:href="#SimHei-20" x="2150"/>
    <use xlink:href="#SimHei-53" x="2200"/>
    <use xlink:href="#SimHei-65" x="2250"/>
    <use xlink:href="#SimHei-6e" x="2300"/>
    <use xlink:href="#SimHei-74" x="2350"/>
    <use xlink:href="#SimHei-69" x="2400"/>
    <use xlink:href="#SimHei-6d" x="2450"/>
    <use xlink:href="#SimHei-65" x="2500"/>
    <use xlink:href="#SimHei-6e" x="2550"/>
    <use xlink:href="#SimHei-74" x="2600"/>
    <use xlink:href="#SimHei-73" x="2650"/>
   </g>
  </g>
 </g>
 <defs>
  <clipPath id="p37d3beef6d">
   <rect x="34.2" y="54" width="144.310345" height="266.4"/>
  </clipPath>
  <clipPath id="pccded7139f">
   <rect x="207.372414" y="54" width="144.310345" height="266.4"/>
  </clipPath>
  <clipPath id="pf112cf8bba">
   <rect x="380.544828" y="54" width="144.310345" height="266.4"/>
  </clipPath>
  <clipPath id="p009d4f701d">
   <rect x="553.717241" y="54" width="144.310345" height="266.4"/>
  </clipPath>
  <clipPath id="pc71fd37d44">
   <rect x="726.889655" y="54" width="144.310345" height="266.4"/>
  </clipPath>
 </defs>
</svg>
